<svg width="41" height="34" viewBox="0 0 41 34" fill="none" xmlns="http://www.w3.org/2000/svg">
<path d="M15.8639 0.109773L0.645418 7.45666C0.454581 7.54879 0.333374 7.74195 0.333374 7.95383V26.0318C0.333374 26.2437 0.454647 26.4369 0.645418 26.529L15.8639 33.8759C16.1672 34.0223 16.5207 34.0223 16.824 33.8759L32.0425 26.529C32.2333 26.4369 32.3545 26.2437 32.3545 26.0318V7.95383C32.3545 7.74195 32.2333 7.54879 32.0425 7.45666L16.824 0.109773C16.5207 -0.0365911 16.1672 -0.0365911 15.8639 0.109773Z" fill="#3D554D"/>
<path d="M0.425175 7.66797C0.367161 7.75632 0.333374 7.86033 0.333374 7.97019V26.0482C0.333374 26.2601 0.454647 26.4532 0.645418 26.5454L15.8639 33.8922C16.0155 33.9654 16.1797 34.002 16.344 34.002V15.3529L0.425175 7.66797Z" fill="#314B42"/>
<path d="M32.2627 7.66797C32.3207 7.75632 32.3545 7.86033 32.3545 7.97019V26.0482C32.3545 26.2601 32.2332 26.4532 32.0425 26.5454L16.824 33.8922C16.6724 33.9654 16.5082 34.002 16.3439 34.002V15.3529L32.2627 7.66797Z" fill="#1D3E32"/>
<path d="M4.88824 25.0705C4.80791 25.0705 4.72591 25.0527 4.64883 25.0156L2.29873 23.881C2.02373 23.7483 1.90887 23.4183 2.04152 23.1438C2.17364 22.8693 2.50474 22.755 2.77868 22.8866L5.12878 24.0213C5.40378 24.1539 5.51864 24.484 5.38599 24.7584C5.29111 24.9557 5.09373 25.0705 4.88824 25.0705Z" fill="#4B7667"/>
<path d="M7.0512 23.6441C6.97087 23.6441 6.88887 23.6263 6.81179 23.5891L2.30187 21.4121C2.02741 21.2795 1.91201 20.9494 2.04467 20.675C2.17679 20.401 2.50842 20.2862 2.78182 20.4178L7.29168 22.5948C7.56615 22.7274 7.68154 23.0575 7.54888 23.3319C7.45408 23.5292 7.25669 23.6441 7.0512 23.6441Z" fill="#4B7667"/>
<path d="M26.8681 10.2447L10.8934 2.52734L6.68231 4.56848L22.6929 12.2978L26.8681 10.2447Z" fill="#558373"/>
<path d="M22.6931 12.2952V18.283C22.6931 18.4865 22.9058 18.6201 23.0891 18.5316L26.5562 16.8578C26.747 16.7657 26.8683 16.5726 26.8683 16.3607V10.2422L22.6931 12.2952Z" fill="#4B7667"/>
</svg>
