<svg width="22" height="22" viewBox="0 0 22 22" fill="none" xmlns="http://www.w3.org/2000/svg">
<g clip-path="url(#clip0_398_474)">
<path d="M21.873 4.59557C21.7471 4.41508 21.5445 4.30352 21.3243 4.29412L7.67753 3.70588C7.28598 3.68875 6.95878 3.99104 6.94204 4.38077C6.9254 4.77035 7.2272 5.09952 7.61688 5.11626L20.3398 5.66472L17.8382 13.4699H6.70582L4.69459 2.51887C4.65038 2.27886 4.4856 2.07862 4.25834 1.98946L0.96429 0.695368C0.601244 0.553232 0.191575 0.731554 0.0489956 1.09416C-0.0933376 1.45696 0.0849359 1.86687 0.447785 2.00945L3.37672 3.16008L5.42344 14.3033C5.48513 14.6383 5.77708 14.8816 6.11782 14.8816H6.45734L5.68206 17.035C5.61717 17.2154 5.64391 17.4157 5.75433 17.5725C5.86462 17.7292 6.04397 17.8225 6.23544 17.8225H6.77922C6.44227 18.1975 6.23544 18.6912 6.23544 19.2342C6.23544 20.4019 7.18559 21.3518 8.35306 21.3518C9.52053 21.3518 10.4707 20.4019 10.4707 19.2342C10.4707 18.6913 10.2638 18.1975 9.92695 17.8225H14.5439C14.2068 18.1975 14 18.6912 14 19.2342C14 20.4019 14.9499 21.3518 16.1176 21.3518C17.2854 21.3518 18.2352 20.4019 18.2352 19.2342C18.2352 18.6913 18.0285 18.1975 17.6916 17.8225H18.3529C18.6779 17.8225 18.9412 17.5591 18.9412 17.2343C18.9412 16.9093 18.6778 16.646 18.3529 16.646H7.07241L7.70761 14.8814H18.3529C18.6598 14.8814 18.9315 14.6831 19.0249 14.391L21.9661 5.21458C22.0336 5.00514 21.999 4.77616 21.873 4.59557ZM8.35311 20.1756C7.83404 20.1756 7.41192 19.7535 7.41192 19.2345C7.41192 18.7154 7.83404 18.2933 8.35311 18.2933C8.87217 18.2933 9.29425 18.7154 9.29425 19.2345C9.29425 19.7535 8.87217 20.1756 8.35311 20.1756ZM16.1176 20.1756C15.5986 20.1756 15.1765 19.7535 15.1765 19.2345C15.1765 18.7154 15.5986 18.2933 16.1176 18.2933C16.6367 18.2933 17.0588 18.7154 17.0588 19.2345C17.0588 19.7535 16.6367 20.1756 16.1176 20.1756Z" fill="#111111"/>
</g>
<defs>
<clipPath id="clip0_398_474">
<rect width="22" height="22" fill="white"/>
</clipPath>
</defs>
</svg>
