<svg width="24" height="24" viewBox="0 0 24 24" fill="none" xmlns="http://www.w3.org/2000/svg">
<g clip-path="url(#clip0_623_4236)">
<path d="M12 0C5.37929 0 0 5.37929 0 12C0 18.6207 5.37929 24 12 24C18.6207 24 24 18.6207 24 12C24 5.37929 18.6207 0 12 0ZM12 21.5172C6.7448 21.5172 2.48272 17.2552 2.48272 12C2.48272 6.7448 6.7448 2.48272 12 2.48272C17.2551 2.48272 21.5172 6.7448 21.5172 12C21.5172 17.2552 17.2552 21.5172 12 21.5172Z" fill="black"/>
<path d="M12 0C5.37929 0 0 5.37929 0 12C0 18.6207 5.37929 24 12 24C18.6207 24 24 18.6207 24 12C24 5.37929 18.6207 0 12 0ZM12 21.5172C6.7448 21.5172 2.48272 17.2552 2.48272 12C2.48272 6.7448 6.7448 2.48272 12 2.48272C17.2551 2.48272 21.5172 6.7448 21.5172 12C21.5172 17.2552 17.2552 21.5172 12 21.5172Z" fill="url(#paint0_linear_623_4236)"/>
<path d="M12.4138 3.35156H11.1724V5.83432H12.4138V3.35156Z" fill="black"/>
<path d="M12.4138 3.35156H11.1724V5.83432H12.4138V3.35156Z" fill="url(#paint1_linear_623_4236)"/>
<path d="M20.276 11.2148H17.7932V12.4562H20.276V11.2148Z" fill="black"/>
<path d="M20.276 11.2148H17.7932V12.4562H20.276V11.2148Z" fill="url(#paint2_linear_623_4236)"/>
<path d="M5.79306 11.2148H3.3103V12.4562H5.79306V11.2148Z" fill="black"/>
<path d="M5.79306 11.2148H3.3103V12.4562H5.79306V11.2148Z" fill="url(#paint3_linear_623_4236)"/>
<path d="M12.4138 17.8359H11.1724V20.3187H12.4138V17.8359Z" fill="black"/>
<path d="M12.4138 17.8359H11.1724V20.3187H12.4138V17.8359Z" fill="url(#paint4_linear_623_4236)"/>
<path d="M16.2414 6.66398C16.6071 6.66398 16.9035 6.36756 16.9035 6.00191C16.9035 5.63626 16.6071 5.33984 16.2414 5.33984C15.8758 5.33984 15.5793 5.63626 15.5793 6.00191C15.5793 6.36756 15.8758 6.66398 16.2414 6.66398Z" fill="black"/>
<path d="M16.2414 6.66398C16.6071 6.66398 16.9035 6.36756 16.9035 6.00191C16.9035 5.63626 16.6071 5.33984 16.2414 5.33984C15.8758 5.33984 15.5793 5.63626 15.5793 6.00191C15.5793 6.36756 15.8758 6.66398 16.2414 6.66398Z" fill="url(#paint5_linear_623_4236)"/>
<path d="M18.3103 9.14445C18.6759 9.14445 18.9723 8.84803 18.9723 8.48238C18.9723 8.11673 18.6759 7.82031 18.3103 7.82031C17.9446 7.82031 17.6482 8.11673 17.6482 8.48238C17.6482 8.84803 17.9446 9.14445 18.3103 9.14445Z" fill="black"/>
<path d="M18.3103 9.14445C18.6759 9.14445 18.9723 8.84803 18.9723 8.48238C18.9723 8.11673 18.6759 7.82031 18.3103 7.82031C17.9446 7.82031 17.6482 8.11673 17.6482 8.48238C17.6482 8.84803 17.9446 9.14445 18.3103 9.14445Z" fill="url(#paint6_linear_623_4236)"/>
<path d="M5.48287 16.5937C5.84852 16.5937 6.14494 16.2973 6.14494 15.9316C6.14494 15.566 5.84852 15.2695 5.48287 15.2695C5.11722 15.2695 4.8208 15.566 4.8208 15.9316C4.8208 16.2973 5.11722 16.5937 5.48287 16.5937Z" fill="black"/>
<path d="M5.48287 16.5937C5.84852 16.5937 6.14494 16.2973 6.14494 15.9316C6.14494 15.566 5.84852 15.2695 5.48287 15.2695C5.11722 15.2695 4.8208 15.566 4.8208 15.9316C4.8208 16.2973 5.11722 16.5937 5.48287 16.5937Z" fill="url(#paint7_linear_623_4236)"/>
<path d="M7.55172 19.0741C7.91737 19.0741 8.21379 18.7777 8.21379 18.4121C8.21379 18.0464 7.91737 17.75 7.55172 17.75C7.18607 17.75 6.88965 18.0464 6.88965 18.4121C6.88965 18.7777 7.18607 19.0741 7.55172 19.0741Z" fill="black"/>
<path d="M7.55172 19.0741C7.91737 19.0741 8.21379 18.7777 8.21379 18.4121C8.21379 18.0464 7.91737 17.75 7.55172 17.75C7.18607 17.75 6.88965 18.0464 6.88965 18.4121C6.88965 18.7777 7.18607 19.0741 7.55172 19.0741Z" fill="url(#paint8_linear_623_4236)"/>
<path d="M18.1035 16.8007C18.4691 16.8007 18.7655 16.5043 18.7655 16.1386C18.7655 15.773 18.4691 15.4766 18.1035 15.4766C17.7378 15.4766 17.4414 15.773 17.4414 16.1386C17.4414 16.5043 17.7378 16.8007 18.1035 16.8007Z" fill="black"/>
<path d="M18.1035 16.8007C18.4691 16.8007 18.7655 16.5043 18.7655 16.1386C18.7655 15.773 18.4691 15.4766 18.1035 15.4766C17.7378 15.4766 17.4414 15.773 17.4414 16.1386C17.4414 16.5043 17.7378 16.8007 18.1035 16.8007Z" fill="url(#paint9_linear_623_4236)"/>
<path d="M15.6206 18.8671C15.9862 18.8671 16.2826 18.5707 16.2826 18.205C16.2826 17.8394 15.9862 17.543 15.6206 17.543C15.2549 17.543 14.9585 17.8394 14.9585 18.205C14.9585 18.5707 15.2549 18.8671 15.6206 18.8671Z" fill="black"/>
<path d="M15.6206 18.8671C15.9862 18.8671 16.2826 18.5707 16.2826 18.205C16.2826 17.8394 15.9862 17.543 15.6206 17.543C15.2549 17.543 14.9585 17.8394 14.9585 18.205C14.9585 18.5707 15.2549 18.8671 15.6206 18.8671Z" fill="url(#paint10_linear_623_4236)"/>
<path d="M5.68966 8.52336C6.05531 8.52336 6.35173 8.22694 6.35173 7.86129C6.35173 7.49564 6.05531 7.19922 5.68966 7.19922C5.32401 7.19922 5.02759 7.49564 5.02759 7.86129C5.02759 8.22694 5.32401 8.52336 5.68966 8.52336Z" fill="black"/>
<path d="M5.68966 8.52336C6.05531 8.52336 6.35173 8.22694 6.35173 7.86129C6.35173 7.49564 6.05531 7.19922 5.68966 7.19922C5.32401 7.19922 5.02759 7.49564 5.02759 7.86129C5.02759 8.22694 5.32401 8.52336 5.68966 8.52336Z" fill="url(#paint11_linear_623_4236)"/>
<path d="M8.17232 6.45695C8.53797 6.45695 8.83439 6.16053 8.83439 5.79488C8.83439 5.42923 8.53797 5.13281 8.17232 5.13281C7.80667 5.13281 7.51025 5.42923 7.51025 5.79488C7.51025 6.16053 7.80667 6.45695 8.17232 6.45695Z" fill="black"/>
<path d="M8.17232 6.45695C8.53797 6.45695 8.83439 6.16053 8.83439 5.79488C8.83439 5.42923 8.53797 5.13281 8.17232 5.13281C7.80667 5.13281 7.51025 5.42923 7.51025 5.79488C7.51025 6.16053 7.80667 6.45695 8.17232 6.45695Z" fill="url(#paint12_linear_623_4236)"/>
<path d="M15.5793 12.454C15.5793 12.1023 15.3103 11.8333 14.9586 11.8333H12.4138V7.19883C12.4138 6.84711 12.1448 6.57812 11.7931 6.57812C11.4413 6.57812 11.1724 6.84711 11.1724 7.19883V12.454C11.1724 12.8057 11.4413 13.0747 11.7931 13.0747H14.9586C15.3103 13.0747 15.5793 12.8057 15.5793 12.454Z" fill="black"/>
<path d="M15.5793 12.454C15.5793 12.1023 15.3103 11.8333 14.9586 11.8333H12.4138V7.19883C12.4138 6.84711 12.1448 6.57812 11.7931 6.57812C11.4413 6.57812 11.1724 6.84711 11.1724 7.19883V12.454C11.1724 12.8057 11.4413 13.0747 11.7931 13.0747H14.9586C15.3103 13.0747 15.5793 12.8057 15.5793 12.454Z" fill="url(#paint13_linear_623_4236)"/>
</g>
<defs>
<linearGradient id="paint0_linear_623_4236" x1="12" y1="24" x2="12" y2="0" gradientUnits="userSpaceOnUse">
<stop stop-color="#009EFD"/>
<stop offset="1" stop-color="#2AF598"/>
</linearGradient>
<linearGradient id="paint1_linear_623_4236" x1="11.7931" y1="5.83432" x2="11.7931" y2="3.35156" gradientUnits="userSpaceOnUse">
<stop stop-color="#009EFD"/>
<stop offset="1" stop-color="#2AF598"/>
</linearGradient>
<linearGradient id="paint2_linear_623_4236" x1="19.0346" y1="12.4562" x2="19.0346" y2="11.2148" gradientUnits="userSpaceOnUse">
<stop stop-color="#009EFD"/>
<stop offset="1" stop-color="#2AF598"/>
</linearGradient>
<linearGradient id="paint3_linear_623_4236" x1="4.55168" y1="12.4562" x2="4.55168" y2="11.2148" gradientUnits="userSpaceOnUse">
<stop stop-color="#009EFD"/>
<stop offset="1" stop-color="#2AF598"/>
</linearGradient>
<linearGradient id="paint4_linear_623_4236" x1="11.7931" y1="20.3187" x2="11.7931" y2="17.8359" gradientUnits="userSpaceOnUse">
<stop stop-color="#009EFD"/>
<stop offset="1" stop-color="#2AF598"/>
</linearGradient>
<linearGradient id="paint5_linear_623_4236" x1="16.2414" y1="6.66398" x2="16.2414" y2="5.33984" gradientUnits="userSpaceOnUse">
<stop stop-color="#009EFD"/>
<stop offset="1" stop-color="#2AF598"/>
</linearGradient>
<linearGradient id="paint6_linear_623_4236" x1="18.3103" y1="9.14445" x2="18.3103" y2="7.82031" gradientUnits="userSpaceOnUse">
<stop stop-color="#009EFD"/>
<stop offset="1" stop-color="#2AF598"/>
</linearGradient>
<linearGradient id="paint7_linear_623_4236" x1="5.48287" y1="16.5937" x2="5.48287" y2="15.2695" gradientUnits="userSpaceOnUse">
<stop stop-color="#009EFD"/>
<stop offset="1" stop-color="#2AF598"/>
</linearGradient>
<linearGradient id="paint8_linear_623_4236" x1="7.55172" y1="19.0741" x2="7.55172" y2="17.75" gradientUnits="userSpaceOnUse">
<stop stop-color="#009EFD"/>
<stop offset="1" stop-color="#2AF598"/>
</linearGradient>
<linearGradient id="paint9_linear_623_4236" x1="18.1035" y1="16.8007" x2="18.1035" y2="15.4766" gradientUnits="userSpaceOnUse">
<stop stop-color="#009EFD"/>
<stop offset="1" stop-color="#2AF598"/>
</linearGradient>
<linearGradient id="paint10_linear_623_4236" x1="15.6206" y1="18.8671" x2="15.6206" y2="17.543" gradientUnits="userSpaceOnUse">
<stop stop-color="#009EFD"/>
<stop offset="1" stop-color="#2AF598"/>
</linearGradient>
<linearGradient id="paint11_linear_623_4236" x1="5.68966" y1="8.52336" x2="5.68966" y2="7.19922" gradientUnits="userSpaceOnUse">
<stop stop-color="#009EFD"/>
<stop offset="1" stop-color="#2AF598"/>
</linearGradient>
<linearGradient id="paint12_linear_623_4236" x1="8.17232" y1="6.45695" x2="8.17232" y2="5.13281" gradientUnits="userSpaceOnUse">
<stop stop-color="#009EFD"/>
<stop offset="1" stop-color="#2AF598"/>
</linearGradient>
<linearGradient id="paint13_linear_623_4236" x1="13.3758" y1="13.0747" x2="13.3758" y2="6.57812" gradientUnits="userSpaceOnUse">
<stop stop-color="#009EFD"/>
<stop offset="1" stop-color="#2AF598"/>
</linearGradient>
<clipPath id="clip0_623_4236">
<rect width="24" height="24" fill="white"/>
</clipPath>
</defs>
</svg>
