<svg width="55" height="54" viewBox="0 0 55 54" fill="none" xmlns="http://www.w3.org/2000/svg">
<g clip-path="url(#clip0_116_2634)">
<path d="M37.8785 36.3239H34.6418L32.9604 35.5756V33.534C35.3146 32.237 37.1615 30.1289 38.1225 27.5889H39.5649C42.9997 27.5889 45.7942 24.7944 45.7942 21.3596C45.7942 19.1417 44.6281 17.192 42.8778 16.0881V15.3778C42.8779 6.89839 35.9794 0 27.5 0C19.0206 0 12.1221 6.89839 12.1221 15.3779V16.0877C10.3713 17.1916 9.20497 19.1414 9.20497 21.3596C9.20497 24.7944 11.9995 27.5889 15.4343 27.5889H16.8774C17.8384 30.1289 19.6853 32.237 22.0395 33.534V35.5671L20.3392 36.3238H17.1213C7.95632 36.3239 0.5 43.7803 0.5 52.9453C0.5 53.5277 0.972184 54 1.55469 54H22.7539C23.3364 54 23.8086 53.5277 23.8086 52.9453C23.8086 52.3629 23.3364 51.8906 22.7539 51.8906H2.64724C3.17311 44.6019 9.10604 38.788 16.4442 38.4493C16.4415 38.4581 16.4377 38.4666 16.4352 38.4754C16.3496 38.776 16.4018 39.099 16.5776 39.3573L21.5667 46.6921C21.7435 46.9519 22.0269 47.1194 22.3397 47.149C22.3728 47.152 22.406 47.1536 22.439 47.1536C22.7173 47.1536 22.9859 47.0434 23.1846 46.8447L27.4906 42.5387L31.7965 46.8447C31.9952 47.0434 32.2639 47.1536 32.5421 47.1536C32.5751 47.1536 32.6082 47.152 32.6413 47.149C32.9542 47.1194 33.2376 46.9519 33.4144 46.6921L38.4037 39.3573C38.5794 39.0991 38.6315 38.7759 38.5461 38.4754C38.5434 38.4662 38.5396 38.4577 38.5368 38.4486C45.8837 38.7782 51.8265 44.5958 52.3528 51.8907H32.2461C31.6637 51.8907 31.1914 52.363 31.1914 52.9454C31.1914 53.5278 31.6637 54.0001 32.2461 54.0001H53.4453C54.0277 54.0001 54.5 53.5278 54.5 52.9454C54.5 43.7803 47.0437 36.3239 37.8785 36.3239ZM36.7219 16.4127C34.555 16.1152 32.5216 15.2518 30.7939 13.885C30.4152 13.5852 29.881 13.5812 29.4976 13.8754C27.2319 15.6137 24.5216 16.5325 21.6598 16.5325C20.5112 16.5325 19.3787 16.3795 18.2817 16.0822V15.546C18.2817 10.4632 22.4168 6.32812 27.4996 6.32812C32.5823 6.32812 36.7175 10.4632 36.7175 15.546C36.7177 15.546 36.7197 16.3845 36.7219 16.4127ZM39.565 25.4797H38.8523V17.2397H39.565C41.8368 17.2397 43.6849 19.0878 43.6849 21.3597C43.6849 23.6314 41.8368 25.4797 39.565 25.4797ZM27.5 2.10938C34.7728 2.10938 40.6967 7.99126 40.7668 15.2478C40.3777 15.1715 39.9761 15.1303 39.5649 15.1303H38.8185C38.5989 9.07632 33.6063 4.21875 27.4996 4.21875C21.3928 4.21875 16.4003 9.07632 16.1807 15.1303H15.4344C15.0235 15.1303 14.6222 15.1714 14.2332 15.2477C14.3034 7.99126 20.2273 2.10938 27.5 2.10938ZM16.1469 25.4797H15.4344C13.1626 25.4797 11.3144 23.6314 11.3144 21.3596C11.3144 19.0878 13.1626 17.2396 15.4344 17.2396H16.147L16.1469 25.4797ZM18.2563 23.5833V18.2529C19.3675 18.5111 20.5071 18.6419 21.6598 18.6419C24.7203 18.6419 27.6324 17.7386 30.1309 16.0215C32.0947 17.4057 34.3541 18.2651 36.7429 18.5408V23.6401C36.7368 24.6287 36.5748 25.581 36.2803 26.4736H31.2437C30.8079 25.2413 29.6317 24.3558 28.2522 24.3558H26.8403C25.091 24.3558 23.6679 25.779 23.6679 27.5283C23.6679 29.2776 25.091 30.7008 26.8403 30.7008H28.2522C29.6318 30.7008 30.808 29.8153 31.2437 28.583H35.2714C33.6245 31.1344 30.7562 32.8269 27.5 32.8269C22.403 32.8269 18.2563 28.6803 18.2563 23.5833ZM29.3154 27.5283C29.3154 28.1146 28.8386 28.5914 28.2523 28.5914H26.8404C26.2542 28.5914 25.7774 28.1146 25.7774 27.5283C25.7774 26.942 26.2542 26.4652 26.8404 26.4652H28.2523C28.8385 26.4652 29.3154 26.942 29.3154 27.5283ZM27.5 34.9363C28.6661 34.9363 29.7914 34.7593 30.8511 34.4313V36.195L27.4906 39.5554L24.1488 36.2137V34.4313C25.2086 34.7593 26.3339 34.9363 27.5 34.9363ZM22.5941 44.452L19.0316 39.2147L22.5851 37.6333L25.999 41.0472L22.5941 44.452ZM32.387 44.452L28.9822 41.0472L32.3961 37.6333L35.9496 39.2147L32.387 44.452Z" fill="#3D554D"/>
<path d="M27.5 51.8906C27.2226 51.8906 26.9505 52.0034 26.7543 52.1996C26.5582 52.3958 26.4453 52.6679 26.4453 52.9453C26.4453 53.2227 26.5581 53.4948 26.7543 53.6909C26.9505 53.887 27.2226 54 27.5 54C27.7774 54 28.0495 53.8871 28.2456 53.6909C28.4418 53.4948 28.5547 53.2227 28.5547 52.9453C28.5547 52.6679 28.4418 52.3958 28.2456 52.1996C28.0495 52.0034 27.7774 51.8906 27.5 51.8906Z" fill="#3D554D"/>
</g>
<defs>
<clipPath id="clip0_116_2634">
<rect width="54" height="54" fill="white" transform="translate(0.5)"/>
</clipPath>
</defs>
</svg>
