<svg width="21" height="14" viewBox="0 0 21 14" fill="none" xmlns="http://www.w3.org/2000/svg">
<path d="M20.4968 6.99104L17.0233 3.40217C16.9093 3.28431 16.7523 3.21778 16.5883 3.21778H14.3687V0.605484C14.3687 0.271095 14.0976 0 13.7632 0H2.51716C2.18277 0 1.91167 0.271095 1.91167 0.605484V2.4225H1.45336C1.11897 2.4225 0.847879 2.6936 0.847879 3.02798C0.847879 3.36237 1.11897 3.63347 1.45336 3.63347H1.91167V4.845H0.605484C0.271095 4.845 0 5.1161 0 5.45049C0 5.78487 0.271095 6.05597 0.605484 6.05597H1.91167V11.6166C1.91167 11.951 2.18277 12.2221 2.51716 12.2221H3.80599C3.92337 12.6128 4.13622 12.9709 4.43283 13.2675C4.90519 13.7399 5.53324 14 6.20125 14C6.86926 14 7.49726 13.7399 7.96966 13.2675C8.26982 12.9673 8.47722 12.6091 8.59258 12.2288H14.3748C14.4901 12.6091 14.6975 12.9673 14.9977 13.2675C15.47 13.7399 16.0981 14 16.7661 14C17.4341 14 18.0621 13.7399 18.5345 13.2675C18.8347 12.9673 19.0421 12.6091 19.1574 12.2288H20.0617C20.3961 12.2288 20.6672 11.9577 20.6672 11.6233V7.41213C20.6672 7.25495 20.6061 7.10398 20.4968 6.99104ZM18.6331 6.80665H14.3517V4.42875H16.3317L18.6331 6.80665ZM3.12264 6.05593H6.27411C6.60849 6.05593 6.87959 5.78483 6.87959 5.45045C6.87959 5.11606 6.60849 4.84496 6.27411 4.84496H3.12264V3.63343H6.71825C7.05264 3.63343 7.32373 3.36233 7.32373 3.02794C7.32373 2.69356 7.05264 2.42246 6.71825 2.42246H3.12264V1.21093H6.71825H13.1577L13.1407 11.0177H8.65455C8.56271 10.5458 8.33445 10.0953 7.96966 9.73049C7.4973 9.25809 6.86926 8.99798 6.20125 8.99798C5.53324 8.99798 4.90523 9.25809 4.43283 9.73049C4.07761 10.0857 3.84248 10.529 3.74766 11.011H3.12264V6.05593ZM7.11339 12.4112C6.86974 12.6549 6.54577 12.789 6.20125 12.789C5.85673 12.789 5.53275 12.6549 5.2891 12.4112C5.04546 12.1676 4.91128 11.8436 4.91128 11.499C4.91128 11.1544 5.04546 10.8305 5.2891 10.5868C5.53275 10.3432 5.85673 10.209 6.20125 10.209C6.54577 10.209 6.86974 10.3432 7.11339 10.5868C7.61634 11.0898 7.61634 11.9082 7.11339 12.4112ZM17.6782 12.4112C17.4345 12.6549 17.1105 12.789 16.766 12.789C16.4215 12.789 16.0975 12.6549 15.8539 12.4112C15.3509 11.9082 15.3509 11.0898 15.8539 10.5868C16.0975 10.3432 16.4215 10.209 16.766 10.209C17.1105 10.209 17.4345 10.3432 17.6782 10.5868C17.9218 10.8305 18.0559 11.1545 18.0559 11.4991C18.056 11.8436 17.9218 12.1676 17.6782 12.4112ZM19.2194 11.0177C19.1275 10.5458 18.8993 10.0954 18.5344 9.73053C18.0621 9.25813 17.434 8.99802 16.766 8.99802C16.098 8.99802 15.47 9.25813 14.9976 9.73053C14.676 10.0522 14.4611 10.4405 14.3517 10.8514V8.01762H19.4562V11.0177H19.2194Z" fill="#111111"/>
</svg>
