<svg width="30" height="30" viewBox="0 0 30 30" fill="none" xmlns="http://www.w3.org/2000/svg">
<g clip-path="url(#clip0_192_11490)">
<path d="M28.8845 13.579L25.8984 10.593V0.878906C25.8984 0.393516 25.5049 0 25.0195 0H4.98047C4.49508 0 4.10156 0.393516 4.10156 0.878906V10.593L1.11557 13.579C0.396152 14.2984 0 15.2548 0 16.2721V27.3633C0 28.8172 1.18283 30 2.63672 30H27.3633C28.8172 30 30 28.8172 30 27.3633V16.2721C30 15.2548 29.6038 14.2983 28.8845 13.579ZM27.6415 14.822C27.6495 14.8299 27.6572 14.8379 27.665 14.8458L25.8984 15.7987V13.0789L27.6415 14.822ZM24.1406 1.75781V16.7468L15 21.6772L5.85938 16.7468V1.75781H24.1406ZM4.10156 13.0789V15.7986L2.33508 14.8458C2.34281 14.8378 2.35061 14.8299 2.35852 14.822L4.10156 13.0789ZM27.3633 28.2422H2.63672C2.15209 28.2422 1.75781 27.8479 1.75781 27.3633V16.5318L14.5828 23.4494C14.8432 23.5898 15.1568 23.5898 15.4172 23.4494L28.2422 16.5318V27.3633C28.2422 27.8479 27.8479 28.2422 27.3633 28.2422Z" fill="black"/>
<path d="M28.8845 13.579L25.8984 10.593V0.878906C25.8984 0.393516 25.5049 0 25.0195 0H4.98047C4.49508 0 4.10156 0.393516 4.10156 0.878906V10.593L1.11557 13.579C0.396152 14.2984 0 15.2548 0 16.2721V27.3633C0 28.8172 1.18283 30 2.63672 30H27.3633C28.8172 30 30 28.8172 30 27.3633V16.2721C30 15.2548 29.6038 14.2983 28.8845 13.579ZM27.6415 14.822C27.6495 14.8299 27.6572 14.8379 27.665 14.8458L25.8984 15.7987V13.0789L27.6415 14.822ZM24.1406 1.75781V16.7468L15 21.6772L5.85938 16.7468V1.75781H24.1406ZM4.10156 13.0789V15.7986L2.33508 14.8458C2.34281 14.8378 2.35061 14.8299 2.35852 14.822L4.10156 13.0789ZM27.3633 28.2422H2.63672C2.15209 28.2422 1.75781 27.8479 1.75781 27.3633V16.5318L14.5828 23.4494C14.8432 23.5898 15.1568 23.5898 15.4172 23.4494L28.2422 16.5318V27.3633C28.2422 27.8479 27.8479 28.2422 27.3633 28.2422Z" fill="url(#paint0_linear_192_11490)"/>
<path d="M10.5389 16.7308C11.7655 17.6864 13.2934 18.2363 14.8412 18.2791C14.8494 18.2794 14.8577 18.2795 14.8659 18.2795C15.34 18.2795 15.7308 17.9018 15.744 17.4249C15.7575 16.9397 15.375 16.5354 14.8898 16.522C12.4363 16.4542 10.2858 14.7453 9.66014 12.3662C8.90668 9.50125 10.5293 6.55269 13.3542 5.65345C14.7874 5.19736 16.3087 5.33154 17.638 6.03162C18.9634 6.72965 19.9329 7.90234 20.3691 9.33461C20.6432 10.3731 20.5517 11.3406 20.0641 12.5666C19.9365 12.8875 19.5419 13.6338 18.6355 13.6338C18.4946 13.6338 18.3808 13.5405 18.3255 13.4849C18.1841 13.3429 18.1004 13.1329 18.1014 12.9236L18.1295 7.85576C18.1322 7.37037 17.7408 6.97468 17.2554 6.97199H17.2504C16.9351 6.97199 16.6582 7.13828 16.5031 7.3883C15.9877 7.03357 15.385 6.84449 14.7436 6.84449C13.8052 6.84449 12.8853 7.26713 12.2198 8.00406C11.5414 8.75529 11.1677 9.77904 11.1677 10.8867C11.1677 11.9917 11.5196 13.0287 12.1586 13.8067C12.8159 14.607 13.7332 15.066 14.6751 15.066C15.4469 15.066 16.1517 14.7705 16.7196 14.2652C16.8211 14.4316 16.9416 14.5862 17.0795 14.7248C17.5074 15.1548 18.06 15.3916 18.6356 15.3916C20.2554 15.3916 21.2793 14.2678 21.6976 13.2162C22.3295 11.6274 22.4425 10.2863 22.064 8.86773C22.0615 8.85859 22.0589 8.84945 22.0562 8.84037C21.4849 6.9475 20.2068 5.39769 18.4572 4.47631C16.708 3.55509 14.7064 3.37838 12.8211 3.97849C11.0343 4.5472 9.54799 5.77322 8.63581 7.4306C7.72327 9.08851 7.48338 11.0002 7.96022 12.8134C8.37307 14.3836 9.26481 15.7382 10.5389 16.7308ZM14.6751 13.3082C13.8301 13.3082 12.9255 12.3352 12.9255 10.8867C12.9255 9.45677 13.8499 8.6023 14.7436 8.6023C15.693 8.6023 16.3561 9.53359 16.3561 10.867C16.3561 12.2131 15.602 13.3082 14.6751 13.3082Z" fill="black"/>
<path d="M10.5389 16.7308C11.7655 17.6864 13.2934 18.2363 14.8412 18.2791C14.8494 18.2794 14.8577 18.2795 14.8659 18.2795C15.34 18.2795 15.7308 17.9018 15.744 17.4249C15.7575 16.9397 15.375 16.5354 14.8898 16.522C12.4363 16.4542 10.2858 14.7453 9.66014 12.3662C8.90668 9.50125 10.5293 6.55269 13.3542 5.65345C14.7874 5.19736 16.3087 5.33154 17.638 6.03162C18.9634 6.72965 19.9329 7.90234 20.3691 9.33461C20.6432 10.3731 20.5517 11.3406 20.0641 12.5666C19.9365 12.8875 19.5419 13.6338 18.6355 13.6338C18.4946 13.6338 18.3808 13.5405 18.3255 13.4849C18.1841 13.3429 18.1004 13.1329 18.1014 12.9236L18.1295 7.85576C18.1322 7.37037 17.7408 6.97468 17.2554 6.97199H17.2504C16.9351 6.97199 16.6582 7.13828 16.5031 7.3883C15.9877 7.03357 15.385 6.84449 14.7436 6.84449C13.8052 6.84449 12.8853 7.26713 12.2198 8.00406C11.5414 8.75529 11.1677 9.77904 11.1677 10.8867C11.1677 11.9917 11.5196 13.0287 12.1586 13.8067C12.8159 14.607 13.7332 15.066 14.6751 15.066C15.4469 15.066 16.1517 14.7705 16.7196 14.2652C16.8211 14.4316 16.9416 14.5862 17.0795 14.7248C17.5074 15.1548 18.06 15.3916 18.6356 15.3916C20.2554 15.3916 21.2793 14.2678 21.6976 13.2162C22.3295 11.6274 22.4425 10.2863 22.064 8.86773C22.0615 8.85859 22.0589 8.84945 22.0562 8.84037C21.4849 6.9475 20.2068 5.39769 18.4572 4.47631C16.708 3.55509 14.7064 3.37838 12.8211 3.97849C11.0343 4.5472 9.54799 5.77322 8.63581 7.4306C7.72327 9.08851 7.48338 11.0002 7.96022 12.8134C8.37307 14.3836 9.26481 15.7382 10.5389 16.7308ZM14.6751 13.3082C13.8301 13.3082 12.9255 12.3352 12.9255 10.8867C12.9255 9.45677 13.8499 8.6023 14.7436 8.6023C15.693 8.6023 16.3561 9.53359 16.3561 10.867C16.3561 12.2131 15.602 13.3082 14.6751 13.3082Z" fill="url(#paint1_linear_192_11490)"/>
</g>
<defs>
<linearGradient id="paint0_linear_192_11490" x1="15" y1="30" x2="15" y2="0" gradientUnits="userSpaceOnUse">
<stop stop-color="#009EFD"/>
<stop offset="1" stop-color="#2AF598"/>
</linearGradient>
<linearGradient id="paint1_linear_192_11490" x1="15.0009" y1="18.2795" x2="15.0009" y2="3.62891" gradientUnits="userSpaceOnUse">
<stop stop-color="#009EFD"/>
<stop offset="1" stop-color="#2AF598"/>
</linearGradient>
<clipPath id="clip0_192_11490">
<rect width="30" height="30" fill="white"/>
</clipPath>
</defs>
</svg>
