<svg width="55" height="54" viewBox="0 0 55 54" fill="none" xmlns="http://www.w3.org/2000/svg">
<g clip-path="url(#clip0_116_2642)">
<path d="M26.0818 41.8453C23.8111 41.8453 21.9637 43.6927 21.9637 45.9634C21.9637 48.2342 23.8111 50.0817 26.0818 50.0817C28.3525 50.0817 30.1999 48.2342 30.1999 45.9634C30.1999 43.6927 28.3525 41.8453 26.0818 41.8453ZM26.0818 48.4995C24.6834 48.4995 23.5457 47.3618 23.5457 45.9633C23.5457 44.5649 24.6834 43.4273 26.0818 43.4273C27.4802 43.4273 28.6179 44.5649 28.6179 45.9633C28.6179 47.3618 27.4802 48.4995 26.0818 48.4995Z" fill="#3D554D"/>
<path d="M54.4547 39.5287L52.4404 32.0117C52.2708 31.3783 51.8646 30.8491 51.2967 30.5213C50.7289 30.1934 50.0674 30.1065 49.4342 30.2761C49.1375 30.3556 48.868 30.4865 48.6328 30.6567L47.6936 27.1516C47.5806 26.7296 47.1468 26.4788 46.7248 26.5923C46.3028 26.7052 46.0524 27.1391 46.1655 27.5611L47.6982 33.2811C47.6983 33.2815 47.6984 33.282 47.6985 33.2825L47.6987 33.2832L48.7854 37.3391L32.2335 41.7742C30.9892 39.9528 28.9578 38.7098 26.6332 38.5388L23.06 25.2031L29.5663 23.4597L30.5147 26.9993C30.7046 27.7071 31.4349 28.1262 32.1394 27.937L37.5325 26.4921C38.2388 26.3026 38.6595 25.5738 38.4703 24.8674L37.522 21.3282L43.7579 19.6573C43.9068 19.6176 44.0606 19.7055 44.1007 19.8554L45.195 23.939C45.3083 24.362 45.7431 24.6114 46.1638 24.4983C46.5858 24.3853 46.8362 23.9515 46.7231 23.5295L45.6289 19.446C45.3629 18.4527 44.3432 17.8625 43.3483 18.1293L37.1125 19.8001L33.5982 6.68391C33.5019 6.32437 33.2714 6.02379 32.9491 5.83774C32.6265 5.65138 32.2511 5.60191 31.8916 5.69852L18.7757 9.21283L17.3673 3.95672C16.7193 1.53865 14.2246 0.0986915 11.807 0.746582L1.48371 3.5127C0.775592 3.70254 0.355724 4.42921 0.545566 5.13743L1.12944 7.31651C1.31886 8.02346 2.04796 8.44386 2.75417 8.25465L12.7209 5.58409L14.245 11.2722C14.358 11.6942 14.7917 11.9448 15.2139 11.8315C15.6358 11.7184 15.8862 11.2846 15.7732 10.8627L14.1829 4.92787C13.9935 4.22028 13.2667 3.79967 12.5584 3.98983L12.2328 4.07695L11.7811 2.39136L12.2166 2.27471C13.792 1.85315 15.4171 2.79098 15.8393 4.36625L25.0108 38.595C24.4242 38.6799 23.8596 38.8333 23.3253 39.047L16.7321 14.441C16.6191 14.019 16.1854 13.7683 15.7632 13.8817C15.3413 13.9946 15.0909 14.4285 15.204 14.8505L21.8923 39.8116C19.9282 41.1533 18.6365 43.4103 18.6365 45.9633C18.6365 50.0687 21.9765 53.4086 26.0818 53.4086C30.0017 53.4086 33.2237 50.3637 33.5069 46.5149L41.6587 44.3308C42.0807 44.2178 42.3311 43.7839 42.218 43.3619C42.1051 42.94 41.6714 42.6893 41.2492 42.8026L33.4504 44.8923C33.3655 44.3057 33.212 43.7411 32.9983 43.2068L52.4089 38.0057L52.8606 39.6913L44.8578 41.8357C44.4358 41.9488 44.1854 42.3826 44.2985 42.8045C44.4116 43.2265 44.845 43.4774 45.2673 43.3638L53.5168 41.1533C54.2232 40.964 54.644 40.2353 54.4547 39.5287ZM5.80526 5.79924L5.35365 4.11355L7.03935 3.66193L7.49107 5.34763L5.80526 5.79924ZM2.59154 6.66039L2.13982 4.97469L3.82552 4.52308L4.27724 6.20878L2.59154 6.66039ZM9.01909 4.9381L8.56737 3.2524L10.253 2.80079L10.7046 4.48638L9.01909 4.9381ZM31.9768 26.3424L31.0946 23.0499L35.994 21.7372L36.8763 25.0298L31.9768 26.3424ZM27.2982 8.56694L28.1804 11.8595L24.8878 12.7417L24.0057 9.44918L27.2982 8.56694ZM22.4777 9.85861L23.4953 13.6567C23.646 14.2189 24.2264 14.5568 24.7922 14.4052L29.0955 13.2522H29.0956C29.6608 13.1006 29.9956 12.5206 29.8441 11.9554L28.8264 8.15751L32.1189 7.27527L35.5846 20.209L22.6508 23.6746L19.1852 10.7408L22.4777 9.85861ZM26.0818 51.8266C22.8488 51.8266 20.2185 49.1964 20.2185 45.9633C20.2185 42.7304 22.8487 40.1001 26.0818 40.1001C29.315 40.1001 31.9451 42.7303 31.9451 45.9633C31.9451 49.1964 29.3148 51.8266 26.0818 51.8266ZM49.2265 32.8721C49.1025 32.4076 49.3792 31.9286 49.8437 31.8041C50.3085 31.6797 50.7878 31.9563 50.9124 32.4212L51.9994 36.4777L50.3137 36.9294L49.2265 32.8721Z" fill="#3D554D"/>
</g>
<defs>
<clipPath id="clip0_116_2642">
<rect width="54" height="54" fill="white" transform="translate(0.5)"/>
</clipPath>
</defs>
</svg>
