<svg width="16" height="17" viewBox="0 0 16 17" fill="none" xmlns="http://www.w3.org/2000/svg">
<path d="M2.66667 2.5H13.3333C13.5101 2.5 13.6797 2.57024 13.8047 2.69526C13.9298 2.82029 14 2.98986 14 3.16667V4.224C14 4.4008 13.9297 4.57034 13.8047 4.69533L9.52867 8.97133C9.40363 9.09633 9.33337 9.26587 9.33333 9.44267V13.646C9.33333 13.7473 9.31023 13.8473 9.26578 13.9384C9.22133 14.0295 9.1567 14.1092 9.07681 14.1716C8.99692 14.2339 8.90387 14.2772 8.80473 14.2982C8.70559 14.3192 8.60297 14.3173 8.50467 14.2927L7.17133 13.9593C7.02717 13.9232 6.89921 13.84 6.80777 13.7228C6.71634 13.6056 6.66667 13.4613 6.66667 13.3127V9.44267C6.66663 9.26587 6.59637 9.09633 6.47133 8.97133L2.19533 4.69533C2.0703 4.57034 2.00004 4.4008 2 4.224V3.16667C2 2.98986 2.07024 2.82029 2.19526 2.69526C2.32029 2.57024 2.48986 2.5 2.66667 2.5Z" stroke="#555555" stroke-width="1.5" stroke-linecap="round" stroke-linejoin="round"/>
</svg>
