<svg width="20" height="20" viewBox="0 0 20 20" fill="none" xmlns="http://www.w3.org/2000/svg">
<path d="M1.09823 10.4162L4.55023 11.9272L14.4982 6.50016L8.49823 13.5002L17.0982 17.4162C17.2453 17.4806 17.4057 17.5086 17.5659 17.4979C17.7262 17.4873 17.8814 17.4382 18.0187 17.3548C18.1559 17.2714 18.271 17.1562 18.3543 17.0189C18.4376 16.8817 18.4866 16.7264 18.4972 16.5662L19.4972 1.56616C19.5084 1.39254 19.4741 1.21902 19.3978 1.06266C19.3215 0.906299 19.2059 0.772496 19.0622 0.674416C18.9185 0.576335 18.7517 0.517357 18.5783 0.503284C18.4049 0.489211 18.2309 0.520529 18.0732 0.594156L1.07323 8.59416C0.899816 8.67643 0.753684 8.80678 0.652211 8.9697C0.550738 9.13262 0.498193 9.32126 0.500827 9.51318C0.50346 9.7051 0.56116 9.89223 0.667065 10.0523C0.77297 10.2124 0.922623 10.3387 1.09823 10.4162ZM6.49823 19.5002L11.2742 17.1842L6.49823 14.9562V19.5002Z" fill="#FCFCFC"/>
</svg>
