<svg width="20" height="21" viewBox="0 0 20 21" fill="none" xmlns="http://www.w3.org/2000/svg">
<g clip-path="url(#clip0_156_16736)">
<path d="M11.9531 14.0156H11.5625V8.9375C11.5625 8.72174 11.3876 8.54688 11.1719 8.54688H8.04687C7.83112 8.54688 7.65625 8.72174 7.65625 8.9375V10.5C7.65625 10.7158 7.83112 10.8906 8.04687 10.8906H8.4375V14.0156H8.04687C7.83112 14.0156 7.65625 14.1905 7.65625 14.4062V15.9687C7.65625 16.1845 7.83112 16.3594 8.04687 16.3594H11.9531C12.1689 16.3594 12.3437 16.1845 12.3437 15.9687V14.4062C12.3437 14.1905 12.1689 14.0156 11.9531 14.0156ZM11.5625 15.5781H8.4375V14.7969H8.82812C9.04388 14.7969 9.21875 14.622 9.21875 14.4062V10.5C9.21875 10.2842 9.04388 10.1094 8.82812 10.1094H8.4375V9.32812H10.7812V14.4062C10.7812 14.622 10.9563 14.7969 11.1719 14.7969H11.5625V15.5781Z" fill="black"/>
<path d="M10 7.76562C10.8615 7.76562 11.5625 7.06463 11.5625 6.20312C11.5625 5.34161 10.8615 4.64062 10 4.64062C9.13849 4.64062 8.4375 5.34161 8.4375 6.20312C8.4375 7.06463 9.13849 7.76562 10 7.76562ZM10 5.42187C10.4308 5.42187 10.7812 5.77237 10.7812 6.20312C10.7812 6.63388 10.4308 6.98437 10 6.98437C9.56924 6.98437 9.21875 6.63388 9.21875 6.20312C9.21875 5.77237 9.56924 5.42187 10 5.42187Z" fill="black"/>
<path d="M9.99988 0.5C4.61018 0.5 -0.000105036 5.10159 -0.000105036 10.5C-0.000105036 12.344 0.528306 14.3051 1.41927 15.7884L0.019884 19.9859C-0.0268079 20.1261 0.00966058 20.281 0.114336 20.3855C0.219469 20.4907 0.374498 20.5265 0.514115 20.4798L4.71165 19.0806C6.1948 19.9717 8.15586 20.5 9.99988 20.5C15.391 20.5 19.9999 15.8978 19.9999 10.5C19.9999 5.10891 15.3978 0.5 9.99988 0.5ZM9.99988 19.7187C8.23093 19.7187 6.35075 19.1967 4.97029 18.3224C4.87248 18.2604 4.75056 18.2441 4.63765 18.2818L1.00819 19.4917L2.21806 15.8622C2.25529 15.7508 2.24034 15.6288 2.17747 15.5296C1.30315 14.1493 0.781144 12.2689 0.781144 10.5C0.781144 5.50289 5.00279 1.28125 9.99988 1.28125C14.997 1.28125 19.2186 5.50289 19.2186 10.5C19.2186 15.4971 14.997 19.7187 9.99988 19.7187Z" fill="black"/>
</g>
<defs>
<clipPath id="clip0_156_16736">
<rect width="20" height="20" fill="white" transform="translate(0 0.5)"/>
</clipPath>
</defs>
</svg>
