<svg width="24" height="24" viewBox="0 0 24 24" fill="none" xmlns="http://www.w3.org/2000/svg">
<path d="M19.0312 9.84375C19.0312 5.96672 15.877 2.8125 12 2.8125C8.12297 2.8125 4.96875 5.96672 4.96875 9.84375C4.96875 13.7208 8.12297 16.875 12 16.875C15.877 16.875 19.0312 13.7208 19.0312 9.84375ZM6.375 9.84375C6.375 6.74213 8.89838 4.21875 12 4.21875C15.1016 4.21875 17.625 6.74213 17.625 9.84375C17.625 12.9454 15.1016 15.4688 12 15.4688C8.89838 15.4688 6.375 12.9454 6.375 9.84375Z" fill="black"/>
<path d="M19.0312 9.84375C19.0312 5.96672 15.877 2.8125 12 2.8125C8.12297 2.8125 4.96875 5.96672 4.96875 9.84375C4.96875 13.7208 8.12297 16.875 12 16.875C15.877 16.875 19.0312 13.7208 19.0312 9.84375ZM6.375 9.84375C6.375 6.74213 8.89838 4.21875 12 4.21875C15.1016 4.21875 17.625 6.74213 17.625 9.84375C17.625 12.9454 15.1016 15.4688 12 15.4688C8.89838 15.4688 6.375 12.9454 6.375 9.84375Z" fill="url(#paint0_linear_623_4269)"/>
<path d="M18.9605 16.8045C20.8198 14.9452 21.8438 12.4732 21.8438 9.84375C21.8438 4.41591 17.4278 0 12 0C6.57216 0 2.15625 4.41591 2.15625 9.84375C2.15625 12.4731 3.18019 14.9451 5.03944 16.8043L10.8288 22.5938H4.26562V24H19.7344V22.5938H13.1712L18.9605 16.8045ZM3.5625 9.84375C3.5625 5.19131 7.34756 1.40625 12 1.40625C16.6524 1.40625 20.4375 5.19131 20.4375 9.84375C20.4375 12.0975 19.5598 14.2164 17.9661 15.8101L12 21.7762L6.0338 15.81C4.44019 14.2163 3.5625 12.0975 3.5625 9.84375Z" fill="black"/>
<path d="M18.9605 16.8045C20.8198 14.9452 21.8438 12.4732 21.8438 9.84375C21.8438 4.41591 17.4278 0 12 0C6.57216 0 2.15625 4.41591 2.15625 9.84375C2.15625 12.4731 3.18019 14.9451 5.03944 16.8043L10.8288 22.5938H4.26562V24H19.7344V22.5938H13.1712L18.9605 16.8045ZM3.5625 9.84375C3.5625 5.19131 7.34756 1.40625 12 1.40625C16.6524 1.40625 20.4375 5.19131 20.4375 9.84375C20.4375 12.0975 19.5598 14.2164 17.9661 15.8101L12 21.7762L6.0338 15.81C4.44019 14.2163 3.5625 12.0975 3.5625 9.84375Z" fill="url(#paint1_linear_623_4269)"/>
<path d="M11.2969 12.3047H12.7031V13.7109H11.2969V12.3047Z" fill="black"/>
<path d="M11.2969 12.3047H12.7031V13.7109H11.2969V12.3047Z" fill="url(#paint2_linear_623_4269)"/>
<path d="M13.0547 8.4375C13.0547 9.01908 12.5815 9.49219 12 9.49219H11.2969V10.8984H12C13.3569 10.8984 14.4609 9.79448 14.4609 8.4375C14.4609 7.08052 13.3569 5.97656 12 5.97656C10.6431 5.97656 9.53906 7.08052 9.53906 8.4375H10.9453C10.9453 7.85592 11.4185 7.38281 12 7.38281C12.5815 7.38281 13.0547 7.85592 13.0547 8.4375Z" fill="black"/>
<path d="M13.0547 8.4375C13.0547 9.01908 12.5815 9.49219 12 9.49219H11.2969V10.8984H12C13.3569 10.8984 14.4609 9.79448 14.4609 8.4375C14.4609 7.08052 13.3569 5.97656 12 5.97656C10.6431 5.97656 9.53906 7.08052 9.53906 8.4375H10.9453C10.9453 7.85592 11.4185 7.38281 12 7.38281C12.5815 7.38281 13.0547 7.85592 13.0547 8.4375Z" fill="url(#paint3_linear_623_4269)"/>
<defs>
<linearGradient id="paint0_linear_623_4269" x1="12" y1="16.875" x2="12" y2="2.8125" gradientUnits="userSpaceOnUse">
<stop stop-color="#009EFD"/>
<stop offset="1" stop-color="#2AF598"/>
</linearGradient>
<linearGradient id="paint1_linear_623_4269" x1="12" y1="24" x2="12" y2="0" gradientUnits="userSpaceOnUse">
<stop stop-color="#009EFD"/>
<stop offset="1" stop-color="#2AF598"/>
</linearGradient>
<linearGradient id="paint2_linear_623_4269" x1="12" y1="13.7109" x2="12" y2="12.3047" gradientUnits="userSpaceOnUse">
<stop stop-color="#009EFD"/>
<stop offset="1" stop-color="#2AF598"/>
</linearGradient>
<linearGradient id="paint3_linear_623_4269" x1="12" y1="10.8984" x2="12" y2="5.97656" gradientUnits="userSpaceOnUse">
<stop stop-color="#009EFD"/>
<stop offset="1" stop-color="#2AF598"/>
</linearGradient>
</defs>
</svg>
