<svg width="20" height="20" viewBox="0 0 20 20" fill="none" xmlns="http://www.w3.org/2000/svg">
<path d="M9.99886 9.58463C9.44633 9.58463 8.91642 9.36514 8.52572 8.97444C8.13502 8.58374 7.91553 8.05383 7.91553 7.5013C7.91553 6.94877 8.13502 6.41886 8.52572 6.02816C8.91642 5.63746 9.44633 5.41797 9.99886 5.41797C10.5514 5.41797 11.0813 5.63746 11.472 6.02816C11.8627 6.41886 12.0822 6.94877 12.0822 7.5013C12.0822 7.77489 12.0283 8.0458 11.9236 8.29856C11.8189 8.55132 11.6655 8.78098 11.472 8.97444C11.2785 9.16789 11.0489 9.32135 10.7961 9.42605C10.5434 9.53075 10.2724 9.58463 9.99886 9.58463ZM9.99886 1.66797C8.45177 1.66797 6.96803 2.28255 5.87407 3.37651C4.78011 4.47047 4.16553 5.95421 4.16553 7.5013C4.16553 11.8763 9.99886 18.3346 9.99886 18.3346C9.99886 18.3346 15.8322 11.8763 15.8322 7.5013C15.8322 5.95421 15.2176 4.47047 14.1237 3.37651C13.0297 2.28255 11.546 1.66797 9.99886 1.66797Z" fill="#111111"/>
</svg>
