<svg width="18" height="20" viewBox="0 0 18 20" fill="none" xmlns="http://www.w3.org/2000/svg">
<path d="M15.4167 9.08203H2.58333C1.57081 9.08203 0.75 9.90284 0.75 10.9154V17.332C0.75 18.3446 1.57081 19.1654 2.58333 19.1654H15.4167C16.4292 19.1654 17.25 18.3446 17.25 17.332V10.9154C17.25 9.90284 16.4292 9.08203 15.4167 9.08203Z" stroke="#848484" stroke-width="1.5" stroke-linecap="round" stroke-linejoin="round"/>
<path d="M4.41663 9.08203V5.41536C4.41663 4.19979 4.89951 3.034 5.75905 2.17446C6.61859 1.31492 7.78438 0.832031 8.99996 0.832031C10.2155 0.832031 11.3813 1.31492 12.2409 2.17446C13.1004 3.034 13.5833 4.19979 13.5833 5.41536V9.08203" stroke="#848484" stroke-width="1.5" stroke-linecap="round" stroke-linejoin="round"/>
</svg>
