<svg width="20" height="21" viewBox="0 0 20 21" fill="none" xmlns="http://www.w3.org/2000/svg">
<path d="M12.9766 3.47656C11.6443 3.47656 10.3475 3.85147 9.22656 4.56074C8.13653 5.25046 7.25736 6.2247 6.68408 7.37809L7.77791 7.92176C8.76615 5.9333 10.7582 4.69807 12.9766 4.69807C16.1758 4.69807 18.7786 7.30081 18.7786 10.5C18.7786 13.6993 16.1758 16.302 12.9766 16.302C10.7582 16.302 8.76619 15.0668 7.77791 13.0783L6.68408 13.622C7.25736 14.7754 8.13653 15.7496 9.22656 16.4393C10.3475 17.1486 11.6443 17.5235 12.9766 17.5235C16.8493 17.5235 20 14.3728 20 10.5001C20 6.62733 16.8493 3.47656 12.9766 3.47656Z" fill="#EE0000"/>
<path d="M12.9766 11.1105V9.88903H2.33813L3.73846 8.4887L2.87476 7.625L0 10.4998L2.87476 13.3746L3.73846 12.5109L2.33809 11.1105H12.9766Z" fill="#EE0000"/>
</svg>
