<svg width="41" height="40" viewBox="0 0 41 40" fill="none" xmlns="http://www.w3.org/2000/svg">
<g clip-path="url(#clip0_192_11413)">
<path d="M39.5266 29.8409H1.56147C1.06725 29.8409 0.666626 29.4402 0.666626 28.946V25.9531H40.6666V28.7008C40.6666 29.3304 40.1562 29.8409 39.5266 29.8409Z" fill="#314B42"/>
<path d="M39.5266 29.8402H29.0558V14.0703H35.6911C36.0367 14.0703 36.3681 14.2088 36.6109 14.4546L40.2935 18.1827C40.5326 18.4247 40.6666 18.7511 40.6666 19.0913V28.7002C40.6666 29.3298 40.1562 29.8402 39.5266 29.8402Z" fill="#3D554D"/>
<path d="M40.2935 18.1827L36.6109 14.4546C36.368 14.2087 36.0367 14.0703 35.6911 14.0703H31.23C31.5756 14.0703 31.9069 14.2088 32.1498 14.4546L35.8324 18.1827C36.0715 18.4247 36.2055 18.7511 36.2055 19.0913V29.8403H39.5265C40.1562 29.8403 40.6666 29.3298 40.6666 28.7002V19.0912C40.6666 18.7511 40.5326 18.4246 40.2935 18.1827Z" fill="#1D3E32"/>
<path d="M31.2734 21.887V16.9871C31.2734 16.6922 31.5125 16.4531 31.8074 16.4531H35.0816C35.2244 16.4531 35.3612 16.5103 35.4616 16.6119L38.2949 19.4802C38.3937 19.5801 38.449 19.7149 38.449 19.8554V21.887C38.449 22.1819 38.2099 22.4209 37.915 22.4209H31.8074C31.5125 22.4209 31.2734 22.1819 31.2734 21.887Z" fill="#4B7667"/>
<path d="M34.5971 32.962C36.5326 32.962 38.1016 31.393 38.1016 29.4576C38.1016 27.5221 36.5326 25.9531 34.5971 25.9531C32.6616 25.9531 31.0927 27.5221 31.0927 29.4576C31.0927 31.393 32.6616 32.962 34.5971 32.962Z" fill="#4B7667"/>
<path d="M34.5971 30.8095C35.3449 30.8095 35.9511 30.2033 35.9511 29.4555C35.9511 28.7078 35.3449 28.1016 34.5971 28.1016C33.8493 28.1016 33.2431 28.7078 33.2431 29.4555C33.2431 30.2033 33.8493 30.8095 34.5971 30.8095Z" fill="#7CB9A4"/>
<path d="M0.666626 27.6129H29.0558V7.67844C29.0558 7.32531 28.7695 7.03906 28.4164 7.03906H1.306C0.952876 7.03906 0.666626 7.32531 0.666626 7.67844V27.6129Z" fill="#558373"/>
<path d="M28.4164 7.03906H24.5947V27.6128H29.0558V7.67844C29.0557 7.32531 28.7695 7.03906 28.4164 7.03906Z" fill="#4B7667"/>
<path d="M7.67523 32.962C9.61069 32.962 11.1797 31.393 11.1797 29.4576C11.1797 27.5221 9.61069 25.9531 7.67523 25.9531C5.73977 25.9531 4.17078 27.5221 4.17078 29.4576C4.17078 31.393 5.73977 32.962 7.67523 32.962Z" fill="#4B7667"/>
<path d="M7.67521 30.8095C8.423 30.8095 9.0292 30.2033 9.0292 29.4555C9.0292 28.7078 8.423 28.1016 7.67521 28.1016C6.92743 28.1016 6.32123 28.7078 6.32123 29.4555C6.32123 30.2033 6.92743 30.8095 7.67521 30.8095Z" fill="#7CB9A4"/>
<path d="M17.5599 14.3906H11.861C11.5955 14.3906 11.3803 14.1754 11.3803 13.9099V7.03906H18.0406V13.9099C18.0406 14.1755 17.8254 14.3906 17.5599 14.3906Z" fill="#6DA994"/>
<path d="M19.57 24.9614H25.8826C26.2149 24.9614 26.4844 24.692 26.4844 24.3596C26.4844 24.0272 26.2149 23.7578 25.8826 23.7578H19.57C19.2377 23.7578 18.9682 24.0273 18.9682 24.3596C18.9682 24.692 19.2376 24.9614 19.57 24.9614Z" fill="#7CB9A4"/>
<path d="M19.57 21.4848H25.8826C26.2149 21.4848 26.4844 21.2154 26.4844 20.883C26.4844 20.5507 26.2149 20.2812 25.8826 20.2812H19.57C19.2377 20.2812 18.9682 20.5506 18.9682 20.883C18.9682 21.2155 19.2376 21.4848 19.57 21.4848Z" fill="#7CB9A4"/>
</g>
<defs>
<clipPath id="clip0_192_11413">
<rect width="40" height="40" fill="white" transform="translate(0.666626)"/>
</clipPath>
</defs>
</svg>
