<svg width="30" height="30" viewBox="0 0 30 30" fill="none" xmlns="http://www.w3.org/2000/svg">
<g clip-path="url(#clip0_192_11497)">
<path d="M29.928 28.7702L24.6342 16.4193C24.4951 16.095 24.176 15.8846 23.8233 15.8846H20.4612C21.8219 13.5075 22.9409 10.8765 22.9409 8.65035C22.9409 -2.81342 7.05929 -2.95327 7.05929 8.65035C7.05929 10.8765 8.1783 13.5075 9.539 15.8846H6.17695C5.82402 15.8846 5.50496 16.095 5.36602 16.4193L0.0722168 28.7702C-0.176807 29.3511 0.249829 30 0.883145 30H29.1171C29.749 30 30.1775 29.3525 29.928 28.7702ZM23.2412 17.6491L25.8535 23.7433C25.7718 23.7859 17.2697 28.2008 17.2088 28.2355H15.362C15.3153 28.1834 15.7122 28.5823 9.96174 22.8326L13.1558 21.1979C13.807 22.029 14.2631 22.557 14.3343 22.6389C14.6859 23.0436 15.3146 23.0429 15.6657 22.6389C15.8133 22.4691 17.6119 20.3851 19.3837 17.6491H23.2412ZM15.0001 1.76902C17.9747 1.76902 21.1763 3.92257 21.1763 8.65035C21.1763 12.6256 16.7202 18.5415 15.0001 20.6765C13.2801 18.5413 8.82397 12.6256 8.82397 8.65035C8.82397 3.89694 11.9258 1.76902 15.0001 1.76902ZM6.75877 17.6491C11.0329 17.6491 10.5472 17.6498 10.6157 17.6477C11.1126 18.4151 11.6115 19.1313 12.0757 19.7685L4.101 23.8499L6.75877 17.6491ZM3.01266 26.3892L8.31128 23.6774L12.8701 28.2355H2.22119L3.01266 26.3892ZM21.033 28.2355L26.5506 25.3695L27.7791 28.2355H21.033Z" fill="black"/>
<path d="M29.928 28.7702L24.6342 16.4193C24.4951 16.095 24.176 15.8846 23.8233 15.8846H20.4612C21.8219 13.5075 22.9409 10.8765 22.9409 8.65035C22.9409 -2.81342 7.05929 -2.95327 7.05929 8.65035C7.05929 10.8765 8.1783 13.5075 9.539 15.8846H6.17695C5.82402 15.8846 5.50496 16.095 5.36602 16.4193L0.0722168 28.7702C-0.176807 29.3511 0.249829 30 0.883145 30H29.1171C29.749 30 30.1775 29.3525 29.928 28.7702ZM23.2412 17.6491L25.8535 23.7433C25.7718 23.7859 17.2697 28.2008 17.2088 28.2355H15.362C15.3153 28.1834 15.7122 28.5823 9.96174 22.8326L13.1558 21.1979C13.807 22.029 14.2631 22.557 14.3343 22.6389C14.6859 23.0436 15.3146 23.0429 15.6657 22.6389C15.8133 22.4691 17.6119 20.3851 19.3837 17.6491H23.2412ZM15.0001 1.76902C17.9747 1.76902 21.1763 3.92257 21.1763 8.65035C21.1763 12.6256 16.7202 18.5415 15.0001 20.6765C13.2801 18.5413 8.82397 12.6256 8.82397 8.65035C8.82397 3.89694 11.9258 1.76902 15.0001 1.76902ZM6.75877 17.6491C11.0329 17.6491 10.5472 17.6498 10.6157 17.6477C11.1126 18.4151 11.6115 19.1313 12.0757 19.7685L4.101 23.8499L6.75877 17.6491ZM3.01266 26.3892L8.31128 23.6774L12.8701 28.2355H2.22119L3.01266 26.3892ZM21.033 28.2355L26.5506 25.3695L27.7791 28.2355H21.033Z" fill="url(#paint0_linear_192_11497)"/>
<path d="M17.6468 7.94366C17.6468 6.48431 16.4594 5.29688 15 5.29688C13.5405 5.29688 12.353 6.48431 12.353 7.94366C12.353 9.40302 13.5405 10.5902 15 10.5902C16.4594 10.5902 17.6468 9.40302 17.6468 7.94366ZM14.1177 7.94366C14.1177 7.45706 14.5134 7.06133 15 7.06133C15.4864 7.06133 15.8824 7.45706 15.8824 7.94366C15.8824 8.43004 15.4864 8.82578 15 8.82578C14.5134 8.82578 14.1177 8.43004 14.1177 7.94366Z" fill="black"/>
<path d="M17.6468 7.94366C17.6468 6.48431 16.4594 5.29688 15 5.29688C13.5405 5.29688 12.353 6.48431 12.353 7.94366C12.353 9.40302 13.5405 10.5902 15 10.5902C16.4594 10.5902 17.6468 9.40302 17.6468 7.94366ZM14.1177 7.94366C14.1177 7.45706 14.5134 7.06133 15 7.06133C15.4864 7.06133 15.8824 7.45706 15.8824 7.94366C15.8824 8.43004 15.4864 8.82578 15 8.82578C14.5134 8.82578 14.1177 8.43004 14.1177 7.94366Z" fill="url(#paint1_linear_192_11497)"/>
</g>
<defs>
<linearGradient id="paint0_linear_192_11497" x1="15.0001" y1="30" x2="15.0001" y2="0" gradientUnits="userSpaceOnUse">
<stop stop-color="#009EFD"/>
<stop offset="1" stop-color="#2AF598"/>
</linearGradient>
<linearGradient id="paint1_linear_192_11497" x1="14.9999" y1="10.5902" x2="14.9999" y2="5.29688" gradientUnits="userSpaceOnUse">
<stop stop-color="#009EFD"/>
<stop offset="1" stop-color="#2AF598"/>
</linearGradient>
<clipPath id="clip0_192_11497">
<rect width="30" height="30" fill="white"/>
</clipPath>
</defs>
</svg>
