<svg width="20" height="21" viewBox="0 0 20 21" fill="none" xmlns="http://www.w3.org/2000/svg">
<g clip-path="url(#clip0_156_16586)">
<path d="M19.2081 4.91295L10.1274 0.529121C10.0468 0.490293 9.9531 0.490293 9.87263 0.529121L0.791807 4.91295C0.690557 4.96182 0.626221 5.06436 0.626221 5.17678V15.8232C0.626221 15.9356 0.690557 16.0382 0.791807 16.0871L9.87259 20.4709C9.91282 20.4903 9.95642 20.5 9.99997 20.5C10.0435 20.5 10.0871 20.4903 10.1274 20.4709L19.2081 16.0871C19.3094 16.0382 19.3737 15.9356 19.3737 15.8232V5.17682C19.3737 5.06432 19.3093 4.96186 19.2081 4.91295ZM9.99997 1.1183L18.4069 5.17678L15.9699 6.35326C15.9545 6.3415 15.9382 6.33064 15.9203 6.32201L7.57048 2.29115L9.99997 1.1183ZM6.90884 2.6224L15.3035 6.67498L13.5842 7.50502L5.19298 3.45408L6.90884 2.6224ZM15.4999 7.23076V10.299L13.894 11.0743V8.00607L15.4999 7.23076ZM18.7878 15.6394L10.2929 19.7403V9.74447L12.3192 8.76627C12.4649 8.69592 12.526 8.5208 12.4557 8.37506C12.3853 8.22939 12.2102 8.16822 12.0645 8.23861L9.99997 9.23529L9.18763 8.84311C9.04188 8.77268 8.86677 8.83385 8.79642 8.97955C8.72606 9.12525 8.78716 9.30041 8.93286 9.37076L9.707 9.74447V19.7403L1.21216 15.6393V5.64354L7.68091 8.76639C7.72196 8.78623 7.76536 8.79561 7.80806 8.79561C7.91696 8.79561 8.02157 8.73459 8.07208 8.62994C8.14243 8.48424 8.08134 8.30908 7.93563 8.23873L1.59306 5.17678L4.50341 3.77178L13.304 8.02033C13.3052 8.02213 13.3067 8.02373 13.308 8.02549V11.5411C13.308 11.6419 13.3599 11.7356 13.4452 11.7892C13.4927 11.819 13.5468 11.834 13.601 11.834C13.6445 11.834 13.688 11.8244 13.7284 11.8049L15.9203 10.7467C16.0215 10.6979 16.0859 10.5954 16.0859 10.4829V6.94795L18.7878 5.64357V15.6394Z" fill="black"/>
<path d="M3.62987 14.5046L2.29725 13.8613C2.15147 13.7908 1.97639 13.852 1.90604 13.9977C1.83569 14.1434 1.89678 14.3186 2.04248 14.3889L3.3751 15.0323C3.41616 15.0521 3.45956 15.0615 3.50225 15.0615C3.61116 15.0615 3.71577 15.0005 3.76627 14.8958C3.83666 14.7501 3.77557 14.575 3.62987 14.5046Z" fill="black"/>
<path d="M4.85641 13.7051L2.29918 12.4706C2.15344 12.4003 1.97832 12.4614 1.90797 12.6071C1.83766 12.7528 1.89875 12.928 2.04445 12.9983L4.60168 14.2328C4.64273 14.2526 4.68613 14.2621 4.72883 14.2621C4.83773 14.2621 4.94234 14.201 4.99285 14.0964C5.0632 13.9506 5.00211 13.7755 4.85641 13.7051Z" fill="black"/>
</g>
<defs>
<clipPath id="clip0_156_16586">
<rect width="20" height="20" fill="white" transform="translate(0 0.5)"/>
</clipPath>
</defs>
</svg>
