<svg width="24" height="24" viewBox="0 0 24 24" fill="none" xmlns="http://www.w3.org/2000/svg">
<g clip-path="url(#clip0_623_4259)">
<path d="M21.8906 2.8125H18.375V2.10938C18.375 0.946266 17.4287 0 16.2656 0C15.1025 0 14.1562 0.946266 14.1562 2.10938V2.8125H5.01562C3.93178 2.8125 3.03661 3.63431 2.91956 4.6875H2.10938C0.946266 4.6875 0 5.63377 0 6.79688V23.2969C0 23.6852 0.314812 24 0.703125 24H20.4844C20.8727 24 21.1875 23.6852 21.1875 23.2969V8.90625H23.2969C23.6852 8.90625 24 8.59144 24 8.20312V4.92188C24 3.75877 23.0537 2.8125 21.8906 2.8125ZM2.90625 22.5938H1.40625V6.79688C1.40625 6.40917 1.72167 6.09375 2.10938 6.09375H2.90625V22.5938ZM15.5625 2.10938C15.5625 1.72167 15.8779 1.40625 16.2656 1.40625C16.6533 1.40625 16.9688 1.72167 16.9688 2.10938V2.8125H15.5625V2.10938ZM19.7812 4.92188V22.5938H4.3125V4.92188C4.3125 4.53417 4.62792 4.21875 5.01562 4.21875H14.1562V6.32812C14.1562 7.49123 15.1025 8.4375 16.2656 8.4375C17.4287 8.4375 18.375 7.49123 18.375 6.32812C18.375 5.93981 18.0602 5.625 17.6719 5.625C17.2836 5.625 16.9688 5.93981 16.9688 6.32812C16.9688 6.71583 16.6533 7.03125 16.2656 7.03125C15.8779 7.03125 15.5625 6.71583 15.5625 6.32812V4.21875H19.9022C19.8241 4.43883 19.7812 4.67541 19.7812 4.92188ZM22.5938 7.5H21.1875V4.92188C21.1875 4.53417 21.5029 4.21875 21.8906 4.21875C22.2783 4.21875 22.5938 4.53417 22.5938 4.92188V7.5Z" fill="black"/>
<path d="M21.8906 2.8125H18.375V2.10938C18.375 0.946266 17.4287 0 16.2656 0C15.1025 0 14.1562 0.946266 14.1562 2.10938V2.8125H5.01562C3.93178 2.8125 3.03661 3.63431 2.91956 4.6875H2.10938C0.946266 4.6875 0 5.63377 0 6.79688V23.2969C0 23.6852 0.314812 24 0.703125 24H20.4844C20.8727 24 21.1875 23.6852 21.1875 23.2969V8.90625H23.2969C23.6852 8.90625 24 8.59144 24 8.20312V4.92188C24 3.75877 23.0537 2.8125 21.8906 2.8125ZM2.90625 22.5938H1.40625V6.79688C1.40625 6.40917 1.72167 6.09375 2.10938 6.09375H2.90625V22.5938ZM15.5625 2.10938C15.5625 1.72167 15.8779 1.40625 16.2656 1.40625C16.6533 1.40625 16.9688 1.72167 16.9688 2.10938V2.8125H15.5625V2.10938ZM19.7812 4.92188V22.5938H4.3125V4.92188C4.3125 4.53417 4.62792 4.21875 5.01562 4.21875H14.1562V6.32812C14.1562 7.49123 15.1025 8.4375 16.2656 8.4375C17.4287 8.4375 18.375 7.49123 18.375 6.32812C18.375 5.93981 18.0602 5.625 17.6719 5.625C17.2836 5.625 16.9688 5.93981 16.9688 6.32812C16.9688 6.71583 16.6533 7.03125 16.2656 7.03125C15.8779 7.03125 15.5625 6.71583 15.5625 6.32812V4.21875H19.9022C19.8241 4.43883 19.7812 4.67541 19.7812 4.92188ZM22.5938 7.5H21.1875V4.92188C21.1875 4.53417 21.5029 4.21875 21.8906 4.21875C22.2783 4.21875 22.5938 4.53417 22.5938 4.92188V7.5Z" fill="url(#paint0_linear_623_4259)"/>
<path d="M6.42188 15.5156H14.8594C15.2477 15.5156 15.5625 15.2008 15.5625 14.8125V14.3438C15.5625 12.6525 14.5028 11.205 13.0129 10.6277C13.4344 10.1049 13.6875 9.441 13.6875 8.71875C13.6875 7.0387 12.3207 5.67188 10.6406 5.67188C8.96058 5.67188 7.59375 7.0387 7.59375 8.71875C7.59375 9.441 7.84683 10.1049 8.26833 10.6277C6.77845 11.205 5.71875 12.6525 5.71875 14.3438V14.8125C5.71875 15.2008 6.03356 15.5156 6.42188 15.5156ZM10.6406 7.07812C11.5453 7.07812 12.2812 7.81411 12.2812 8.71875C12.2812 9.62339 11.5453 10.3594 10.6406 10.3594C9.73598 10.3594 9 9.62339 9 8.71875C9 7.81411 9.73598 7.07812 10.6406 7.07812ZM9.70312 11.7656H11.5781C12.9208 11.7656 14.027 12.7972 14.1457 14.1094H7.13555C7.25428 12.7972 8.36048 11.7656 9.70312 11.7656Z" fill="black"/>
<path d="M6.42188 15.5156H14.8594C15.2477 15.5156 15.5625 15.2008 15.5625 14.8125V14.3438C15.5625 12.6525 14.5028 11.205 13.0129 10.6277C13.4344 10.1049 13.6875 9.441 13.6875 8.71875C13.6875 7.0387 12.3207 5.67188 10.6406 5.67188C8.96058 5.67188 7.59375 7.0387 7.59375 8.71875C7.59375 9.441 7.84683 10.1049 8.26833 10.6277C6.77845 11.205 5.71875 12.6525 5.71875 14.3438V14.8125C5.71875 15.2008 6.03356 15.5156 6.42188 15.5156ZM10.6406 7.07812C11.5453 7.07812 12.2812 7.81411 12.2812 8.71875C12.2812 9.62339 11.5453 10.3594 10.6406 10.3594C9.73598 10.3594 9 9.62339 9 8.71875C9 7.81411 9.73598 7.07812 10.6406 7.07812ZM9.70312 11.7656H11.5781C12.9208 11.7656 14.027 12.7972 14.1457 14.1094H7.13555C7.25428 12.7972 8.36048 11.7656 9.70312 11.7656Z" fill="url(#paint1_linear_623_4259)"/>
<path d="M17.6719 16.9219H6.42188C6.03356 16.9219 5.71875 17.2367 5.71875 17.625C5.71875 18.0133 6.03356 18.3281 6.42188 18.3281H17.6719C18.0602 18.3281 18.375 18.0133 18.375 17.625C18.375 17.2367 18.0602 16.9219 17.6719 16.9219Z" fill="black"/>
<path d="M17.6719 16.9219H6.42188C6.03356 16.9219 5.71875 17.2367 5.71875 17.625C5.71875 18.0133 6.03356 18.3281 6.42188 18.3281H17.6719C18.0602 18.3281 18.375 18.0133 18.375 17.625C18.375 17.2367 18.0602 16.9219 17.6719 16.9219Z" fill="url(#paint2_linear_623_4259)"/>
<path d="M17.6719 19.7344H6.42188C6.03356 19.7344 5.71875 20.0492 5.71875 20.4375C5.71875 20.8258 6.03356 21.1406 6.42188 21.1406H17.6719C18.0602 21.1406 18.375 20.8258 18.375 20.4375C18.375 20.0492 18.0602 19.7344 17.6719 19.7344Z" fill="black"/>
<path d="M17.6719 19.7344H6.42188C6.03356 19.7344 5.71875 20.0492 5.71875 20.4375C5.71875 20.8258 6.03356 21.1406 6.42188 21.1406H17.6719C18.0602 21.1406 18.375 20.8258 18.375 20.4375C18.375 20.0492 18.0602 19.7344 17.6719 19.7344Z" fill="url(#paint3_linear_623_4259)"/>
</g>
<defs>
<linearGradient id="paint0_linear_623_4259" x1="12" y1="24" x2="12" y2="0" gradientUnits="userSpaceOnUse">
<stop stop-color="#009EFD"/>
<stop offset="1" stop-color="#2AF598"/>
</linearGradient>
<linearGradient id="paint1_linear_623_4259" x1="10.6406" y1="15.5156" x2="10.6406" y2="5.67188" gradientUnits="userSpaceOnUse">
<stop stop-color="#009EFD"/>
<stop offset="1" stop-color="#2AF598"/>
</linearGradient>
<linearGradient id="paint2_linear_623_4259" x1="12.0469" y1="18.3281" x2="12.0469" y2="16.9219" gradientUnits="userSpaceOnUse">
<stop stop-color="#009EFD"/>
<stop offset="1" stop-color="#2AF598"/>
</linearGradient>
<linearGradient id="paint3_linear_623_4259" x1="12.0469" y1="21.1406" x2="12.0469" y2="19.7344" gradientUnits="userSpaceOnUse">
<stop stop-color="#009EFD"/>
<stop offset="1" stop-color="#2AF598"/>
</linearGradient>
<clipPath id="clip0_623_4259">
<rect width="24" height="24" fill="white"/>
</clipPath>
</defs>
</svg>
