<svg width="24" height="24" viewBox="0 0 24 24" fill="none" xmlns="http://www.w3.org/2000/svg">
<g clip-path="url(#clip0_623_4281)">
<path d="M9.49236 4.83455L9.34939 6.64781C9.33017 6.89175 9.43911 7.12809 9.63706 7.27191C9.83506 7.41572 10.0935 7.44628 10.3195 7.35262L11.9998 6.6563L13.6802 7.35258C13.9051 7.44591 14.1643 7.41609 14.3627 7.27186C14.5606 7.12805 14.6696 6.89166 14.6503 6.64777L14.5074 4.8345L15.6889 3.45155C15.8478 3.26555 15.8986 3.01027 15.823 2.77758C15.7474 2.54489 15.5563 2.36822 15.3183 2.31113L13.5496 1.88677L12.5995 0.335766C12.4716 0.127172 12.2445 0 11.9998 0C11.7552 0 11.5281 0.127172 11.4003 0.335813L10.4501 1.88681L8.68142 2.31117C8.44348 2.36827 8.25237 2.54489 8.17676 2.77763C8.10116 3.01031 8.15192 3.26559 8.31087 3.45159L9.49236 4.83455ZM11.0615 3.18623C11.2429 3.14273 11.3996 3.02887 11.497 2.86983L11.9998 2.04909L12.5027 2.86983C12.6001 3.02887 12.7568 3.14273 12.9382 3.18623L13.8741 3.41081L13.2489 4.14262C13.1277 4.28447 13.0679 4.46864 13.0826 4.65459L13.1582 5.61408L12.269 5.24564C12.0967 5.17425 11.903 5.17425 11.7307 5.24564L10.8416 5.61408L10.9172 4.65459C10.9319 4.46859 10.872 4.28447 10.7509 4.14262L10.1257 3.41081L11.0615 3.18623Z" fill="black"/>
<path d="M9.49236 4.83455L9.34939 6.64781C9.33017 6.89175 9.43911 7.12809 9.63706 7.27191C9.83506 7.41572 10.0935 7.44628 10.3195 7.35262L11.9998 6.6563L13.6802 7.35258C13.9051 7.44591 14.1643 7.41609 14.3627 7.27186C14.5606 7.12805 14.6696 6.89166 14.6503 6.64777L14.5074 4.8345L15.6889 3.45155C15.8478 3.26555 15.8986 3.01027 15.823 2.77758C15.7474 2.54489 15.5563 2.36822 15.3183 2.31113L13.5496 1.88677L12.5995 0.335766C12.4716 0.127172 12.2445 0 11.9998 0C11.7552 0 11.5281 0.127172 11.4003 0.335813L10.4501 1.88681L8.68142 2.31117C8.44348 2.36827 8.25237 2.54489 8.17676 2.77763C8.10116 3.01031 8.15192 3.26559 8.31087 3.45159L9.49236 4.83455ZM11.0615 3.18623C11.2429 3.14273 11.3996 3.02887 11.497 2.86983L11.9998 2.04909L12.5027 2.86983C12.6001 3.02887 12.7568 3.14273 12.9382 3.18623L13.8741 3.41081L13.2489 4.14262C13.1277 4.28447 13.0679 4.46864 13.0826 4.65459L13.1582 5.61408L12.269 5.24564C12.0967 5.17425 11.903 5.17425 11.7307 5.24564L10.8416 5.61408L10.9172 4.65459C10.9319 4.46859 10.872 4.28447 10.7509 4.14262L10.1257 3.41081L11.0615 3.18623Z" fill="url(#paint0_linear_623_4281)"/>
<path d="M23.9655 5.54325C23.8898 5.31056 23.6987 5.13389 23.4608 5.0768L21.6921 4.65244L20.742 3.10144C20.6141 2.8928 20.3871 2.76562 20.1424 2.76562C19.8978 2.76562 19.6707 2.8928 19.5428 3.10144L18.5927 4.65244L16.824 5.0768C16.5861 5.13389 16.395 5.31052 16.3193 5.54325C16.2437 5.77594 16.2945 6.03122 16.4535 6.21722L17.6349 7.60017L17.492 9.41344C17.4727 9.65738 17.5817 9.89372 17.7796 10.0375C17.9776 10.1813 18.2361 10.212 18.4621 10.1182L20.1425 9.42197L21.8228 10.1182C22.0477 10.2116 22.3068 10.1818 22.5052 10.0375C22.7032 9.89372 22.8121 9.65738 22.7929 9.41344L22.65 7.60017L23.8314 6.21722C23.9903 6.03122 24.0411 5.77594 23.9655 5.54325ZM21.3915 6.90825C21.2703 7.05005 21.2104 7.23427 21.2251 7.42022L21.3007 8.37975L20.4116 8.01131C20.2393 7.93992 20.0456 7.93992 19.8733 8.01131L18.984 8.37975L19.0597 7.42027C19.0744 7.23427 19.0145 7.05009 18.8933 6.90825L18.2681 6.17644L19.2041 5.95191C19.3855 5.90841 19.5421 5.79455 19.6396 5.6355L20.1424 4.81477L20.6452 5.6355C20.7427 5.79459 20.8993 5.90841 21.0807 5.95191L22.0167 6.17648L21.3915 6.90825Z" fill="black"/>
<path d="M23.9655 5.54325C23.8898 5.31056 23.6987 5.13389 23.4608 5.0768L21.6921 4.65244L20.742 3.10144C20.6141 2.8928 20.3871 2.76562 20.1424 2.76562C19.8978 2.76562 19.6707 2.8928 19.5428 3.10144L18.5927 4.65244L16.824 5.0768C16.5861 5.13389 16.395 5.31052 16.3193 5.54325C16.2437 5.77594 16.2945 6.03122 16.4535 6.21722L17.6349 7.60017L17.492 9.41344C17.4727 9.65738 17.5817 9.89372 17.7796 10.0375C17.9776 10.1813 18.2361 10.212 18.4621 10.1182L20.1425 9.42197L21.8228 10.1182C22.0477 10.2116 22.3068 10.1818 22.5052 10.0375C22.7032 9.89372 22.8121 9.65738 22.7929 9.41344L22.65 7.60017L23.8314 6.21722C23.9903 6.03122 24.0411 5.77594 23.9655 5.54325ZM21.3915 6.90825C21.2703 7.05005 21.2104 7.23427 21.2251 7.42022L21.3007 8.37975L20.4116 8.01131C20.2393 7.93992 20.0456 7.93992 19.8733 8.01131L18.984 8.37975L19.0597 7.42027C19.0744 7.23427 19.0145 7.05009 18.8933 6.90825L18.2681 6.17644L19.2041 5.95191C19.3855 5.90841 19.5421 5.79455 19.6396 5.6355L20.1424 4.81477L20.6452 5.6355C20.7427 5.79459 20.8993 5.90841 21.0807 5.95191L22.0167 6.17648L21.3915 6.90825Z" fill="url(#paint1_linear_623_4281)"/>
<path d="M6.22029 10.0375C6.41824 9.89372 6.52718 9.65733 6.50796 9.41344L6.36499 7.60017L7.54648 6.21722C7.70543 6.03122 7.7562 5.77594 7.68059 5.54325C7.60498 5.31056 7.41387 5.13389 7.17593 5.0768L5.40724 4.65244L4.45709 3.10144C4.32926 2.8928 4.1022 2.76562 3.85751 2.76562C3.61282 2.76562 3.38576 2.8928 3.25793 3.10144L2.30777 4.65244L0.539087 5.0768C0.30115 5.13389 0.11004 5.31052 0.0344308 5.54325C-0.0411786 5.77594 0.00958703 6.03122 0.16854 6.21722L1.35002 7.60017L1.20706 9.41344C1.18784 9.65738 1.29677 9.89372 1.49473 10.0375C1.69315 10.1818 1.95227 10.2116 2.17718 10.1182L3.85751 9.42197L5.53788 10.1182C5.76387 10.2119 6.02238 10.1814 6.22029 10.0375ZM4.94018 7.42027L5.01584 8.37975L4.12662 8.01131C3.95426 7.93992 3.76062 7.93992 3.58831 8.01131L2.69913 8.37975L2.77479 7.42022C2.78946 7.23427 2.7296 7.05009 2.60843 6.90825L1.98326 6.17648L2.91921 5.95191C3.10062 5.90841 3.25727 5.79455 3.35473 5.6355L3.85751 4.81477L4.36034 5.6355C4.45779 5.79455 4.61445 5.90841 4.79585 5.95191L5.73181 6.17644L5.10659 6.90825C4.98537 7.05009 4.92551 7.23427 4.94018 7.42027Z" fill="black"/>
<path d="M6.22029 10.0375C6.41824 9.89372 6.52718 9.65733 6.50796 9.41344L6.36499 7.60017L7.54648 6.21722C7.70543 6.03122 7.7562 5.77594 7.68059 5.54325C7.60498 5.31056 7.41387 5.13389 7.17593 5.0768L5.40724 4.65244L4.45709 3.10144C4.32926 2.8928 4.1022 2.76562 3.85751 2.76562C3.61282 2.76562 3.38576 2.8928 3.25793 3.10144L2.30777 4.65244L0.539087 5.0768C0.30115 5.13389 0.11004 5.31052 0.0344308 5.54325C-0.0411786 5.77594 0.00958703 6.03122 0.16854 6.21722L1.35002 7.60017L1.20706 9.41344C1.18784 9.65738 1.29677 9.89372 1.49473 10.0375C1.69315 10.1818 1.95227 10.2116 2.17718 10.1182L3.85751 9.42197L5.53788 10.1182C5.76387 10.2119 6.02238 10.1814 6.22029 10.0375ZM4.94018 7.42027L5.01584 8.37975L4.12662 8.01131C3.95426 7.93992 3.76062 7.93992 3.58831 8.01131L2.69913 8.37975L2.77479 7.42022C2.78946 7.23427 2.7296 7.05009 2.60843 6.90825L1.98326 6.17648L2.91921 5.95191C3.10062 5.90841 3.25727 5.79455 3.35473 5.6355L3.85751 4.81477L4.36034 5.6355C4.45779 5.79455 4.61445 5.90841 4.79585 5.95191L5.73181 6.17644L5.10659 6.90825C4.98537 7.05009 4.92551 7.23427 4.94018 7.42027Z" fill="url(#paint2_linear_623_4281)"/>
<path d="M20.0154 15.3466C19.5554 14.7991 18.8815 14.4851 18.1664 14.4851H15.5482L16.0061 13.0594C16.094 12.7912 16.1386 12.513 16.1386 12.2323C16.1386 11.0792 15.4018 10.0641 14.3055 9.70635C13.4879 9.43888 12.6051 9.88644 12.3368 10.7066L11.2697 14.0115C11.1408 14.4066 10.83 14.7263 10.4387 14.8666L9.23438 15.2981V14.8601C9.23438 14.4718 8.91956 14.157 8.53125 14.157H4.96875C4.58044 14.157 4.26562 14.4718 4.26562 14.8601V23.2976C4.26562 23.6859 4.58044 24.0007 4.96875 24.0007H8.53125C8.91956 24.0007 9.23438 23.6859 9.23438 23.2976V22.6373C9.59531 22.6675 9.93066 22.8222 10.1893 23.0808C10.7308 23.6281 11.4986 23.9459 12.2695 23.9426H16.9425C18.3593 23.9426 19.5646 22.9296 19.8087 21.5337L20.5451 17.3157C20.6683 16.6116 20.4753 15.8939 20.0154 15.3466ZM7.82812 22.5945H5.67188V15.5632H7.82812V22.5945ZM19.1599 17.0736L18.4235 21.2916C18.2974 22.0129 17.6745 22.5364 16.9425 22.5364H12.2696C11.8669 22.5379 11.4671 22.3727 11.1843 22.087C10.6594 21.5621 9.97116 21.2604 9.23438 21.2285V16.7918L10.9131 16.1904C11.7107 15.9044 12.3438 15.2529 12.6072 14.4457L13.6742 11.1412C13.7005 11.0607 13.7875 11.0166 13.8687 11.0431C14.5201 11.2461 14.8908 11.9798 14.6685 12.6253L13.9143 14.9732C13.761 15.4094 14.1216 15.9039 14.5837 15.8914H18.1664C18.7745 15.8766 19.2794 16.4769 19.1599 17.0736Z" fill="black"/>
<path d="M20.0154 15.3466C19.5554 14.7991 18.8815 14.4851 18.1664 14.4851H15.5482L16.0061 13.0594C16.094 12.7912 16.1386 12.513 16.1386 12.2323C16.1386 11.0792 15.4018 10.0641 14.3055 9.70635C13.4879 9.43888 12.6051 9.88644 12.3368 10.7066L11.2697 14.0115C11.1408 14.4066 10.83 14.7263 10.4387 14.8666L9.23438 15.2981V14.8601C9.23438 14.4718 8.91956 14.157 8.53125 14.157H4.96875C4.58044 14.157 4.26562 14.4718 4.26562 14.8601V23.2976C4.26562 23.6859 4.58044 24.0007 4.96875 24.0007H8.53125C8.91956 24.0007 9.23438 23.6859 9.23438 23.2976V22.6373C9.59531 22.6675 9.93066 22.8222 10.1893 23.0808C10.7308 23.6281 11.4986 23.9459 12.2695 23.9426H16.9425C18.3593 23.9426 19.5646 22.9296 19.8087 21.5337L20.5451 17.3157C20.6683 16.6116 20.4753 15.8939 20.0154 15.3466ZM7.82812 22.5945H5.67188V15.5632H7.82812V22.5945ZM19.1599 17.0736L18.4235 21.2916C18.2974 22.0129 17.6745 22.5364 16.9425 22.5364H12.2696C11.8669 22.5379 11.4671 22.3727 11.1843 22.087C10.6594 21.5621 9.97116 21.2604 9.23438 21.2285V16.7918L10.9131 16.1904C11.7107 15.9044 12.3438 15.2529 12.6072 14.4457L13.6742 11.1412C13.7005 11.0607 13.7875 11.0166 13.8687 11.0431C14.5201 11.2461 14.8908 11.9798 14.6685 12.6253L13.9143 14.9732C13.761 15.4094 14.1216 15.9039 14.5837 15.8914H18.1664C18.7745 15.8766 19.2794 16.4769 19.1599 17.0736Z" fill="url(#paint3_linear_623_4281)"/>
</g>
<defs>
<linearGradient id="paint0_linear_623_4281" x1="11.9999" y1="7.40619" x2="11.9999" y2="0" gradientUnits="userSpaceOnUse">
<stop stop-color="#009EFD"/>
<stop offset="1" stop-color="#2AF598"/>
</linearGradient>
<linearGradient id="paint1_linear_623_4281" x1="20.1424" y1="10.1718" x2="20.1424" y2="2.76562" gradientUnits="userSpaceOnUse">
<stop stop-color="#009EFD"/>
<stop offset="1" stop-color="#2AF598"/>
</linearGradient>
<linearGradient id="paint2_linear_623_4281" x1="3.85751" y1="10.1718" x2="3.85751" y2="2.76562" gradientUnits="userSpaceOnUse">
<stop stop-color="#009EFD"/>
<stop offset="1" stop-color="#2AF598"/>
</linearGradient>
<linearGradient id="paint3_linear_623_4281" x1="12.4235" y1="24.0007" x2="12.4235" y2="9.62891" gradientUnits="userSpaceOnUse">
<stop stop-color="#009EFD"/>
<stop offset="1" stop-color="#2AF598"/>
</linearGradient>
<clipPath id="clip0_623_4281">
<rect width="24" height="24" fill="white"/>
</clipPath>
</defs>
</svg>
