<svg width="19" height="18" viewBox="0 0 19 18" fill="none" xmlns="http://www.w3.org/2000/svg">
<path d="M6.49209 0C9.98132 0 12.82 2.83872 12.82 6.32795C12.82 7.81984 12.3008 9.19247 11.4339 10.2755L12.5281 11.3696C13.2963 11.002 14.2679 11.1207 14.9294 11.7822L17.5459 14.3987C18.3702 15.223 18.3702 16.5573 17.5459 17.3817C16.7215 18.206 15.3873 18.2062 14.5628 17.3817L11.9463 14.7652C11.2845 14.1034 11.1663 13.1317 11.5338 12.364L10.4396 11.2698C9.35657 12.1367 7.98393 12.6559 6.49209 12.6559C3.00285 12.6559 0.164135 9.81718 0.164135 6.32795C0.164135 2.83872 3.00285 0 6.49209 0ZM12.9407 13.7709L15.5572 16.3874C15.8313 16.6615 16.2773 16.6615 16.5515 16.3874C16.8256 16.1132 16.8256 15.6672 16.5515 15.393L13.935 12.7765C13.6603 12.5017 13.2155 12.5017 12.9406 12.7766C12.6659 13.0512 12.6658 13.496 12.9407 13.7709ZM6.49209 11.2497C9.20593 11.2497 11.4138 9.0418 11.4138 6.32795C11.4138 3.6141 9.20593 1.40621 6.49209 1.40621C3.77824 1.40621 1.57034 3.6141 1.57034 6.32795C1.57034 9.0418 3.7782 11.2497 6.49209 11.2497Z" fill="#A5A5A5"/>
</svg>
