<svg width="55" height="50" viewBox="0 0 55 50" fill="none" xmlns="http://www.w3.org/2000/svg">
<path d="M51.4215 33.5473V30.6439C51.4215 27.9364 49.2188 25.7338 46.5114 25.7338H27.7065C27.2688 25.7338 26.9139 26.0886 26.9139 26.5264C26.9139 26.9642 27.2688 27.319 27.7065 27.319H46.5114C48.3448 27.319 49.8364 28.8105 49.8364 30.644V33.5474C48.0806 33.9141 46.7578 35.4737 46.7578 37.3366V40.2801H21.434V37.3366C21.434 35.4736 20.1111 33.9141 18.3554 33.5474V30.644C18.3554 28.8105 19.8471 27.319 21.6804 27.319H24.5363C24.974 27.319 25.3289 26.9642 25.3289 26.5264C25.3289 26.0886 24.974 25.7338 24.5363 25.7338H21.6804C18.973 25.7338 16.7703 27.9365 16.7703 30.6439V33.5473C15.0147 33.914 13.6917 35.4736 13.6917 37.3365V48.6245C13.6917 49.0623 14.0465 49.4171 14.4843 49.4171H38.9301C39.3679 49.4171 39.7227 49.0623 39.7227 48.6245C39.7227 48.1867 39.3679 47.8319 38.9301 47.8319H21.434V41.8651H46.7578V47.8319H42.1003C41.6624 47.8319 41.3076 48.1867 41.3076 48.6245C41.3076 49.0623 41.6624 49.4171 42.1003 49.4171H53.7075C54.1453 49.4171 54.5001 49.0623 54.5001 48.6245V37.3366C54.5 35.4736 53.1771 33.9141 51.4215 33.5473ZM15.2768 37.3366C15.2768 36.0761 16.3023 35.0507 17.5628 35.0507C18.8234 35.0507 19.8489 36.0761 19.8489 37.3366V47.832H15.2768V37.3366ZM52.9149 47.832H48.3428V37.3366C48.3428 36.0761 49.3683 35.0507 50.6289 35.0507C51.8893 35.0507 52.9148 36.0761 52.9148 37.3366V47.832H52.9149Z" fill="#3D554D"/>
<path d="M20.6952 20.0779C20.7339 20.4774 21.082 20.7931 21.4838 20.7931H46.7079C47.1389 20.7931 47.5005 20.4316 47.5005 20.0005V1.37542C47.5005 0.944266 47.139 0.582825 46.7079 0.582825H42.1002C41.6624 0.582825 41.3076 0.937622 41.3076 1.37542C41.3076 1.81322 41.6624 2.16802 42.1002 2.16802H44.7944L43.3272 3.6353H24.8644L23.3972 2.16802H38.9299C39.3677 2.16802 39.7225 1.81322 39.7225 1.37542C39.7225 0.937622 39.3677 0.582825 38.9299 0.582825H21.4837C21.0523 0.582825 20.6911 0.944794 20.6911 1.37542V20.0005C20.6913 20.026 20.6926 20.0525 20.6952 20.0779ZM23.3972 19.208L24.8644 17.7406H43.3271L44.7943 19.208H23.3972ZM42.8629 16.1554H35.6619L34.3407 14.6879L38.6255 9.92852C38.8802 9.64533 39.3333 9.64945 39.587 9.93126L42.8629 13.5349V16.1554ZM33.5289 16.1554H25.3288V15.5773L28.7974 11.7245C28.9935 11.5066 29.3438 11.5065 29.5399 11.7245L33.5289 16.1554ZM45.9153 3.28894V18.0869L44.448 16.6197V4.75622L45.9153 3.28894ZM42.8629 11.1784L40.7626 8.86792C39.8898 7.89856 38.3201 7.89856 37.4474 8.86792L33.2742 13.5033L30.718 10.6639C30.3233 10.2255 29.7586 9.97408 29.1687 9.97408C28.5826 9.97408 28.0114 10.2285 27.6193 10.6639L25.3288 13.2082V5.22039H42.8629V11.1784ZM23.7436 4.75622V16.6198L22.2763 18.0871V3.28894L23.7436 4.75622Z" fill="#3D554D"/>
<path d="M9.43246 44.9761H8.65484V17.5459H10.6906V26.5136C10.6906 26.9514 11.0455 27.3062 11.4832 27.3062C11.9209 27.3062 12.2758 26.9514 12.2758 26.5136V17.5459H14.4323C14.9332 17.5459 15.3167 17.0653 15.205 16.5767L12.4257 4.41959C12.3433 4.0592 12.0227 3.80365 11.653 3.80365H4.07148C3.70181 3.80365 3.38119 4.0592 3.29882 4.41959L0.519506 16.5767C0.407814 17.0653 0.791298 17.5459 1.29217 17.5459H7.06975V44.976H6.29213C4.34591 44.976 2.76261 46.5593 2.76261 48.5054V48.6245C2.76261 49.0623 3.11752 49.4171 3.55521 49.4171H12.1694C12.6071 49.4171 12.962 49.0623 12.962 48.6245V48.5054C12.9619 46.5594 11.3786 44.9761 9.43246 44.9761ZM4.70335 5.38885H11.0212L13.4382 15.9608H2.28632L4.70335 5.38885ZM4.46794 47.832C4.74247 47.0909 5.4565 46.5612 6.29202 46.5612H9.43235C10.2679 46.5612 10.9819 47.0908 11.2564 47.832H4.46794Z" fill="#3D554D"/>
<path d="M33.2742 10.5618C34.5084 10.5618 35.5123 9.55769 35.5123 8.3236C35.5123 7.08941 34.5083 6.08545 33.2742 6.08545C32.04 6.08545 31.036 7.08951 31.036 8.3236C31.036 9.55769 32.04 10.5618 33.2742 10.5618ZM33.2742 7.67054C33.6343 7.67054 33.9273 7.96353 33.9273 8.3236C33.9273 8.68367 33.6343 8.97666 33.2742 8.97666C32.9141 8.97666 32.6211 8.68367 32.6211 8.3236C32.6211 7.96343 32.9141 7.67054 33.2742 7.67054Z" fill="#3D554D"/>
</svg>
