<svg width="55" height="54" viewBox="0 0 55 54" fill="none" xmlns="http://www.w3.org/2000/svg">
<g clip-path="url(#clip0_116_2649)">
<path d="M49.0243 35.1271L52.0549 15.8668C52.1781 15.084 51.9532 14.2891 51.4372 13.6848C50.9217 13.0825 50.1715 12.737 49.379 12.737H49.1732V3.16471C49.1732 1.98284 48.2118 1.02143 47.0299 1.02143H45.2832C44.8463 1.02143 44.4922 1.37562 44.4922 1.8125C44.4922 2.24938 44.8463 2.60357 45.2832 2.60357H47.0299C47.3393 2.60357 47.591 2.85524 47.591 3.16471V7.76431H36.3631C36.0458 6.95784 35.2608 6.38458 34.3427 6.38458H31.7476V3.16471C31.7476 2.85524 31.9998 2.60357 32.3098 2.60357H41.5917C42.0286 2.60357 42.3827 2.24938 42.3827 1.8125C42.3827 1.37562 42.0286 1.02143 41.5917 1.02143H32.3098C31.5198 1.02143 30.8298 1.45188 30.4578 2.08927L26.1746 0.252192C24.7473 -0.359992 23.057 0.175616 22.2428 1.4985L19.2026 6.43869C18.2335 6.65639 17.5066 7.52193 17.5066 8.55528V12.737H17.0326L15.5727 7.72265C15.2389 6.57338 14.1696 5.7707 12.9722 5.7707H9.08108C8.42533 5.14987 7.54134 4.76784 6.56916 4.76784C4.55256 4.76784 2.91199 6.40841 2.91199 8.42501C2.91199 10.4416 4.55256 12.0822 6.56916 12.0822C7.48311 12.0822 8.31912 11.7445 8.96083 11.1882H10.9392L13.0537 18.4529C13.1544 18.7986 13.4701 19.0232 13.8129 19.0232C13.8861 19.0232 13.9605 19.0129 14.0344 18.9914C14.4539 18.8693 14.695 18.4303 14.5729 18.0108L12.2925 10.176C12.1942 9.83829 11.8847 9.60603 11.533 9.60603H10.0295C10.1564 9.23528 10.2263 8.83827 10.2263 8.42501C10.2263 8.05205 10.1699 7.69206 10.0657 7.35285H12.9723C13.4701 7.35285 13.9148 7.68636 14.0535 8.16449L15.6796 13.7492C15.7779 14.087 16.0874 14.3191 16.4391 14.3191H49.3789C49.7085 14.3191 50.0206 14.4629 50.2346 14.7129C50.4493 14.9643 50.5432 15.2952 50.492 15.6207L47.4613 34.8811C47.3745 35.4323 46.9065 35.8324 46.3483 35.8324H23.1619C22.913 35.8324 22.6785 35.9495 22.5292 36.1487C22.3798 36.3478 22.3328 36.6056 22.4024 36.8446L23.6842 41.2473C24.058 42.5306 25.2527 43.427 26.5894 43.427H45.8612C46.4824 43.427 46.9876 43.9323 46.9876 44.5534C46.9876 44.6802 46.966 44.8042 46.9256 44.921C46.195 44.485 45.3419 44.2335 44.4309 44.2335C43.0773 44.2335 41.8508 44.7875 40.9655 45.6801H38.1192C37.6823 45.6801 37.3281 46.0343 37.3281 46.4712C37.3281 46.9081 37.6823 47.2623 38.1192 47.2623H39.9145C39.6786 47.8345 39.5476 48.4605 39.5476 49.1169C39.5476 51.8095 41.7383 54.0001 44.4309 54.0001C47.1235 54.0001 49.3141 51.8095 49.3141 49.1169C49.3141 47.9213 48.8815 46.8254 48.1657 45.9756C48.4268 45.5529 48.5697 45.0625 48.5697 44.5536C48.5697 43.06 47.3546 41.8449 45.8611 41.8449H26.5894C25.9516 41.8449 25.3816 41.4173 25.2032 40.8051L24.2161 37.4147H46.3483C47.6903 37.4145 48.8156 36.4525 49.0243 35.1271ZM6.56916 10.5C5.42496 10.5 4.49413 9.56922 4.49413 8.42501C4.49413 7.28081 5.42496 6.34998 6.56916 6.34998C7.71337 6.34998 8.64419 7.28081 8.64419 8.42501C8.64419 9.56922 7.71337 10.5 6.56916 10.5ZM47.5909 12.737H36.5145V9.34645H47.5909V12.737ZM23.5903 2.32775C23.9964 1.6681 24.8392 1.40093 25.551 1.70618L30.1653 3.68534V6.38447H21.0936L23.5903 2.32775ZM19.0889 8.55538C19.0889 8.23073 19.3534 7.96672 19.6786 7.96672H34.3426C34.6678 7.96672 34.9323 8.23073 34.9323 8.55538V12.7371H19.0889V8.55538ZM44.431 52.4179C42.6108 52.4179 41.1299 50.937 41.1299 49.1168C41.1299 47.2965 42.6108 45.8156 44.431 45.8156C46.2512 45.8156 47.7321 47.2965 47.7321 49.1168C47.7321 50.937 46.2512 52.4179 44.431 52.4179Z" fill="#3D554D"/>
<path d="M22.0458 33.5795H44.709C45.0984 33.5795 45.4299 33.2961 45.4904 32.9115L47.9175 17.4861C47.9535 17.2576 47.8877 17.0248 47.7374 16.8491C47.5871 16.6733 47.3674 16.5721 47.1361 16.5721H17.5555C17.3066 16.5721 17.0721 16.6893 16.9227 16.8885C16.7734 17.0876 16.7263 17.3454 16.796 17.5844L21.2863 33.0098C21.3846 33.3474 21.6941 33.5795 22.0458 33.5795ZM21.2572 27.249H23.6729L24.0756 31.9975H22.6394L21.2572 27.249ZM24.9435 23.5149L24.4897 18.1543H25.7878L26.2537 23.6484C26.2884 24.0579 26.631 24.3726 27.0419 24.3726H32.039C32.4758 24.3726 32.83 24.0184 32.83 23.5816V18.1542H34.1241V23.5816C34.1241 24.0184 34.4783 24.3726 34.9152 24.3726H39.9132C40.3241 24.3726 40.6667 24.0579 40.7014 23.6484L41.1673 18.1543H42.4655L42.0117 23.5149C41.9931 23.7356 42.0676 23.9539 42.2175 24.117C42.3674 24.28 42.5786 24.3727 42.7999 24.3727H45.2324L45.0288 25.6669H42.5556C42.1446 25.6669 41.802 25.9817 41.7673 26.3911L41.2918 31.9975H39.9938L40.458 26.5248C40.4766 26.3041 40.4021 26.0858 40.2523 25.9227C40.1025 25.7596 39.8911 25.6668 39.6697 25.6668H34.9153C34.4784 25.6668 34.1242 26.021 34.1242 26.4579V31.9975H32.8301V26.4579C32.8301 26.021 32.4759 25.6668 32.0391 25.6668H27.2856C27.0642 25.6668 26.8528 25.7596 26.703 25.9227C26.5532 26.0858 26.4787 26.3041 26.4973 26.5248L26.9614 31.9975H25.6634L25.188 26.3911C25.1533 25.9817 24.8107 25.6669 24.3997 25.6669H20.7967L20.4199 24.3727H24.1552C24.3766 24.3727 24.5879 24.2799 24.7377 24.117C24.8875 23.954 24.9621 23.7355 24.9435 23.5149ZM27.3756 18.1543H31.248V22.7906H27.7689L27.3756 18.1543ZM35.7064 18.1543H39.5795L39.1863 22.7906H35.7063V18.1543H35.7064ZM38.406 31.9974H35.7064V27.2489H38.8087L38.406 31.9974ZM28.1466 27.249H31.248V31.9975H28.5493L28.1466 27.249ZM44.0326 31.9974H42.8797L43.2824 27.2489H44.7798L44.0326 31.9974ZM45.4814 22.7905H43.6608L44.0533 18.1542H46.2108L45.4814 22.7905ZM22.9019 18.1543L23.2942 22.7906H19.9593L18.6097 18.1543H22.9019Z" fill="#3D554D"/>
<path d="M34.4277 45.6801H28.2866C27.4013 44.7873 26.1748 44.2334 24.8212 44.2334C24.2763 44.2334 23.7527 44.3245 23.2629 44.4899C22.43 43.8116 21.8174 42.8976 21.5205 41.877L15.6023 21.5444C15.504 21.2066 15.1935 20.9744 14.8417 20.9744C14.4048 20.9744 14.0511 21.3286 14.0511 21.7654C14.0511 21.8535 14.0656 21.9382 14.0922 22.0173L20.0014 42.3189C20.3288 43.4448 20.9497 44.4705 21.7891 45.293C20.6624 46.1883 19.9379 47.569 19.9379 49.1167C19.9379 51.8093 22.1285 53.9999 24.8211 53.9999C27.5137 53.9999 29.7043 51.8093 29.7043 49.1167C29.7043 48.4604 29.5733 47.8343 29.3375 47.2621H34.4275C34.8643 47.2621 35.2185 46.9079 35.2185 46.471C35.2185 46.0341 34.8645 45.6801 34.4277 45.6801ZM24.8212 52.4179C23.001 52.4179 21.5201 50.937 21.5201 49.1168C21.5201 47.2965 23.001 45.8156 24.8212 45.8156C26.6414 45.8156 28.1223 47.2965 28.1223 49.1168C28.1223 50.937 26.6414 52.4179 24.8212 52.4179Z" fill="#3D554D"/>
<path d="M24.8212 46.8954C23.5964 46.8954 22.5999 47.8918 22.5999 49.1167C22.5999 50.3415 23.5963 51.3379 24.8212 51.3379C26.046 51.3379 27.0424 50.3415 27.0424 49.1167C27.0424 47.8918 26.046 46.8954 24.8212 46.8954ZM24.8212 49.7557C24.4688 49.7557 24.182 49.469 24.182 49.1166C24.182 48.7642 24.4687 48.4774 24.8212 48.4774C25.1736 48.4774 25.4603 48.7641 25.4603 49.1166C25.4603 49.469 25.1736 49.7557 24.8212 49.7557Z" fill="#3D554D"/>
<path d="M44.431 46.8954C43.2063 46.8954 42.2097 47.8918 42.2097 49.1167C42.2097 50.3415 43.2062 51.3379 44.431 51.3379C45.6558 51.3379 46.6523 50.3415 46.6523 49.1167C46.6523 47.8918 45.6558 46.8954 44.431 46.8954ZM44.431 49.7557C44.0787 49.7557 43.7919 49.469 43.7919 49.1166C43.7919 48.7642 44.0785 48.4774 44.431 48.4774C44.7834 48.4774 45.0701 48.7641 45.0701 49.1166C45.0701 49.469 44.7834 49.7557 44.431 49.7557Z" fill="#3D554D"/>
</g>
<defs>
<clipPath id="clip0_116_2649">
<rect width="54" height="54" fill="white" transform="translate(0.5)"/>
</clipPath>
</defs>
</svg>
