<svg width="20" height="20" viewBox="0 0 20 20" fill="none" xmlns="http://www.w3.org/2000/svg">
<g clip-path="url(#clip0_398_453)">
<path fill-rule="evenodd" clip-rule="evenodd" d="M11.9291 6.29297C11.3093 8.54836 8.83464 12.6543 6.26857 12.6543C3.65246 12.6543 1.19748 8.43743 0.608184 6.29297C0.254028 6.29297 0.00012207 6.51132 0.00012207 6.87875V17.6263C0.00012207 17.9497 0.241363 18.212 0.538909 18.212H1.9212C2.13421 19.2423 3.04608 20.0008 4.12029 20.0008C5.19451 20.0008 6.10652 19.2423 6.31938 18.212H11.9982C12.2959 18.212 12.5372 17.9497 12.5372 17.6263V6.87875C12.5372 6.51132 12.2833 6.29297 11.9291 6.29297ZM4.87972 18.5148C4.20513 19.1894 3.04623 18.7095 3.04623 17.7552C3.04623 16.8011 4.20513 16.3212 4.87972 16.9958C5.29918 17.4151 5.29918 18.0953 4.87972 18.5148Z" fill="#111111"/>
<path fill-rule="evenodd" clip-rule="evenodd" d="M18.1811 12.2673H15.4646C15.1411 12.2673 14.8788 12.0051 14.8788 11.6815C14.8788 11.358 15.1411 11.0957 15.4646 11.0957H17.4829L17.0324 10.3399C16.4181 9.30891 15.4783 8.59923 14.3629 8.31084C14.1815 8.26399 14.0057 8.30016 13.8575 8.4149C13.7095 8.52965 13.6305 8.69078 13.6305 8.878V17.6178C13.6305 17.9403 13.8936 18.2035 14.2163 18.2035H14.6124C14.8224 19.2375 15.7359 20 16.813 20C17.8901 20 18.8037 19.2375 19.0136 18.2035H19.4097C19.7332 18.2035 19.9955 17.9412 19.9955 17.6178V14.1029C19.9955 13.0789 19.1995 12.2899 18.1811 12.2673ZM17.5724 18.5139C16.8979 19.1885 15.7389 18.7086 15.7389 17.7543C15.7389 16.8002 16.8979 16.3203 17.5724 16.9949C17.9919 17.4142 17.9919 18.0944 17.5724 18.5139Z" fill="#111111"/>
<path fill-rule="evenodd" clip-rule="evenodd" d="M6.76944 5.22345C7.04608 4.9468 7.04608 4.4982 6.76944 4.22156C6.32464 3.77676 5.56018 4.09308 5.56018 4.7225C5.56018 5.35192 6.32464 5.66824 6.76944 5.22345Z" fill="#111111"/>
<path fill-rule="evenodd" clip-rule="evenodd" d="M6.26845 11.4818C7.19603 11.4818 8.43932 10.3596 9.40291 8.9221C10.2936 7.59337 10.9917 5.96328 10.9917 4.7232C10.9917 2.11471 8.87694 0 6.26845 0C3.66012 0 1.54541 2.11471 1.54541 4.7232C1.54541 5.96328 2.2435 7.59337 3.13415 8.9221C4.09759 10.3596 5.34103 11.4818 6.26845 11.4818ZM6.26845 2.84316C7.30666 2.84316 8.14849 3.68499 8.14849 4.7232C8.14849 5.76125 7.30666 6.60308 6.26845 6.60308C5.2304 6.60308 4.38857 5.76125 4.38857 4.7232C4.38857 3.68499 5.2304 2.84316 6.26845 2.84316Z" fill="#111111"/>
</g>
<defs>
<clipPath id="clip0_398_453">
<rect width="20" height="20" fill="white"/>
</clipPath>
</defs>
</svg>
