<svg width="30" height="30" viewBox="0 0 30 30" fill="none" xmlns="http://www.w3.org/2000/svg">
<path d="M28.8504 6.1238C27.6993 4.53983 25.6835 3.11014 23.1741 2.09823C20.6783 1.09182 17.7805 0.535299 15.0143 0.531314C12.248 0.5244 9.34657 1.07518 6.8472 2.0738C4.33353 3.07815 2.3128 4.50163 1.15751 6.08184C0.0478622 7.5996 -0.271942 9.23548 0.232608 10.8126C0.559913 11.8358 1.5147 12.5242 2.60905 12.5258L6.35618 12.5293C6.35741 12.5293 6.35864 12.5293 6.35993 12.5293C7.10712 12.5293 7.80913 12.2022 8.2862 11.6316C8.75823 11.067 8.95376 10.3292 8.82269 9.6072C8.81888 9.58604 8.81419 9.56495 8.80886 9.54403L8.61169 8.77751C9.70353 8.25655 12.1774 7.25003 15.0028 7.26602C17.8262 7.2805 20.2983 8.28643 21.3915 8.80763L21.1912 9.56981C21.1855 9.59138 21.1807 9.61311 21.1766 9.63497C21.0435 10.3566 21.2369 11.0949 21.7073 11.6608C22.1835 12.2338 22.8861 12.563 23.6352 12.5641L27.3823 12.5676C27.3835 12.5676 27.3848 12.5676 27.3861 12.5676C28.4783 12.5676 29.4334 11.8823 29.7632 10.8613C30.2725 9.28452 29.9569 7.6463 28.8504 6.1238ZM28.0594 10.3109C27.9706 10.5856 27.6939 10.7772 27.3854 10.7772C27.3851 10.7772 27.3847 10.7772 27.3844 10.7772L23.6372 10.7737C23.4214 10.7734 23.2198 10.6796 23.0841 10.5163C23.0103 10.4275 22.8951 10.2429 22.9328 9.98612L23.3056 8.56798C23.4077 8.17932 23.2384 7.77034 22.8915 7.56749C22.747 7.483 19.3015 5.49749 15.0119 5.4754C14.9881 5.47528 14.965 5.47522 14.9412 5.47522C10.6792 5.47522 7.25829 7.45206 7.11398 7.53667C6.76927 7.73882 6.60028 8.14487 6.69984 8.53194L7.06523 9.95237C7.10255 10.2097 6.98671 10.3943 6.91259 10.483C6.77671 10.6455 6.57526 10.7387 6.35941 10.7387C6.35905 10.7387 6.3587 10.7387 6.35835 10.7387L2.61116 10.7352C2.30278 10.7347 2.02593 10.5422 1.93792 10.2669C1.61026 9.24263 1.83398 8.18999 2.60284 7.13835C4.64525 4.34483 9.84837 2.32153 14.9838 2.32153C14.993 2.32153 15.0027 2.32153 15.0119 2.32153C20.1524 2.32891 25.3634 4.37061 27.4022 7.1762C28.1692 8.23188 28.3904 9.28651 28.0594 10.3109Z" fill="#111111"/>
<path d="M28.8504 6.1238C27.6993 4.53983 25.6835 3.11014 23.1741 2.09823C20.6783 1.09182 17.7805 0.535299 15.0143 0.531314C12.248 0.5244 9.34657 1.07518 6.8472 2.0738C4.33353 3.07815 2.3128 4.50163 1.15751 6.08184C0.0478622 7.5996 -0.271942 9.23548 0.232608 10.8126C0.559913 11.8358 1.5147 12.5242 2.60905 12.5258L6.35618 12.5293C6.35741 12.5293 6.35864 12.5293 6.35993 12.5293C7.10712 12.5293 7.80913 12.2022 8.2862 11.6316C8.75823 11.067 8.95376 10.3292 8.82269 9.6072C8.81888 9.58604 8.81419 9.56495 8.80886 9.54403L8.61169 8.77751C9.70353 8.25655 12.1774 7.25003 15.0028 7.26602C17.8262 7.2805 20.2983 8.28643 21.3915 8.80763L21.1912 9.56981C21.1855 9.59138 21.1807 9.61311 21.1766 9.63497C21.0435 10.3566 21.2369 11.0949 21.7073 11.6608C22.1835 12.2338 22.8861 12.563 23.6352 12.5641L27.3823 12.5676C27.3835 12.5676 27.3848 12.5676 27.3861 12.5676C28.4783 12.5676 29.4334 11.8823 29.7632 10.8613C30.2725 9.28452 29.9569 7.6463 28.8504 6.1238ZM28.0594 10.3109C27.9706 10.5856 27.6939 10.7772 27.3854 10.7772C27.3851 10.7772 27.3847 10.7772 27.3844 10.7772L23.6372 10.7737C23.4214 10.7734 23.2198 10.6796 23.0841 10.5163C23.0103 10.4275 22.8951 10.2429 22.9328 9.98612L23.3056 8.56798C23.4077 8.17932 23.2384 7.77034 22.8915 7.56749C22.747 7.483 19.3015 5.49749 15.0119 5.4754C14.9881 5.47528 14.965 5.47522 14.9412 5.47522C10.6792 5.47522 7.25829 7.45206 7.11398 7.53667C6.76927 7.73882 6.60028 8.14487 6.69984 8.53194L7.06523 9.95237C7.10255 10.2097 6.98671 10.3943 6.91259 10.483C6.77671 10.6455 6.57526 10.7387 6.35941 10.7387C6.35905 10.7387 6.3587 10.7387 6.35835 10.7387L2.61116 10.7352C2.30278 10.7347 2.02593 10.5422 1.93792 10.2669C1.61026 9.24263 1.83398 8.18999 2.60284 7.13835C4.64525 4.34483 9.84837 2.32153 14.9838 2.32153C14.993 2.32153 15.0027 2.32153 15.0119 2.32153C20.1524 2.32891 25.3634 4.37061 27.4022 7.1762C28.1692 8.23188 28.3904 9.28651 28.0594 10.3109Z" fill="url(#paint0_linear_192_11503)"/>
<path d="M23.4724 16.3975L20.678 13.4634C20.5089 13.286 20.2747 13.1856 20.0298 13.1856H18.2239V11.9655C18.2239 11.4711 17.8231 11.0703 17.3287 11.0703C16.8343 11.0703 16.4335 11.4711 16.4335 11.9655V13.1856H13.567V11.9655C13.567 11.4711 13.1662 11.0703 12.6718 11.0703C12.1774 11.0703 11.7766 11.4711 11.7766 11.9655V13.1856H9.97079C9.72581 13.1856 9.4915 13.286 9.32257 13.4634L6.52823 16.3975C4.3373 18.698 3.13068 21.7145 3.13068 24.8913V28.5741C3.13068 29.0686 3.53146 29.4693 4.02587 29.4693H25.9746C26.469 29.4693 26.8698 29.0686 26.8698 28.5741V24.8913C26.8699 21.7145 25.6633 18.698 23.4724 16.3975ZM4.92107 27.6789V24.8913C4.92107 22.1763 5.95226 19.5983 7.8248 17.6322L10.3545 14.9759H19.6461L22.1758 17.6322C24.0482 19.5982 25.0794 22.1763 25.0794 24.8913V27.6789H4.92107Z" fill="#111111"/>
<path d="M23.4724 16.3975L20.678 13.4634C20.5089 13.286 20.2747 13.1856 20.0298 13.1856H18.2239V11.9655C18.2239 11.4711 17.8231 11.0703 17.3287 11.0703C16.8343 11.0703 16.4335 11.4711 16.4335 11.9655V13.1856H13.567V11.9655C13.567 11.4711 13.1662 11.0703 12.6718 11.0703C12.1774 11.0703 11.7766 11.4711 11.7766 11.9655V13.1856H9.97079C9.72581 13.1856 9.4915 13.286 9.32257 13.4634L6.52823 16.3975C4.3373 18.698 3.13068 21.7145 3.13068 24.8913V28.5741C3.13068 29.0686 3.53146 29.4693 4.02587 29.4693H25.9746C26.469 29.4693 26.8698 29.0686 26.8698 28.5741V24.8913C26.8699 21.7145 25.6633 18.698 23.4724 16.3975ZM4.92107 27.6789V24.8913C4.92107 22.1763 5.95226 19.5983 7.8248 17.6322L10.3545 14.9759H19.6461L22.1758 17.6322C24.0482 19.5982 25.0794 22.1763 25.0794 24.8913V27.6789H4.92107Z" fill="url(#paint1_linear_192_11503)"/>
<path d="M15.0003 16.8242C12.4169 16.8242 10.3152 18.926 10.3152 21.5093C10.3152 24.0927 12.4169 26.1945 15.0003 26.1945C17.5836 26.1945 19.6854 24.0927 19.6854 21.5093C19.6854 18.9259 17.5837 16.8242 15.0003 16.8242ZM15.0003 24.404C13.4041 24.404 12.1056 23.1055 12.1056 21.5093C12.1056 19.9131 13.4041 18.6146 15.0003 18.6146C16.5964 18.6146 17.895 19.9131 17.895 21.5093C17.895 23.1055 16.5964 24.404 15.0003 24.404Z" fill="#111111"/>
<path d="M15.0003 16.8242C12.4169 16.8242 10.3152 18.926 10.3152 21.5093C10.3152 24.0927 12.4169 26.1945 15.0003 26.1945C17.5836 26.1945 19.6854 24.0927 19.6854 21.5093C19.6854 18.9259 17.5837 16.8242 15.0003 16.8242ZM15.0003 24.404C13.4041 24.404 12.1056 23.1055 12.1056 21.5093C12.1056 19.9131 13.4041 18.6146 15.0003 18.6146C16.5964 18.6146 17.895 19.9131 17.895 21.5093C17.895 23.1055 16.5964 24.404 15.0003 24.404Z" fill="url(#paint2_linear_192_11503)"/>
<defs>
<linearGradient id="paint0_linear_192_11503" x1="15" y1="12.5676" x2="15" y2="0.53125" gradientUnits="userSpaceOnUse">
<stop stop-color="#009EFD"/>
<stop offset="1" stop-color="#2AF598"/>
</linearGradient>
<linearGradient id="paint1_linear_192_11503" x1="15.0002" y1="29.4693" x2="15.0002" y2="11.0703" gradientUnits="userSpaceOnUse">
<stop stop-color="#009EFD"/>
<stop offset="1" stop-color="#2AF598"/>
</linearGradient>
<linearGradient id="paint2_linear_192_11503" x1="15.0003" y1="26.1945" x2="15.0003" y2="16.8242" gradientUnits="userSpaceOnUse">
<stop stop-color="#009EFD"/>
<stop offset="1" stop-color="#2AF598"/>
</linearGradient>
</defs>
</svg>
