<svg width="41" height="36" viewBox="0 0 41 36" fill="none" xmlns="http://www.w3.org/2000/svg">
<path d="M17.3769 6.18317L6.60422 11.3838C6.46913 11.449 6.38333 11.5857 6.38333 11.7357V24.5325C6.38333 24.6825 6.46918 24.8192 6.60422 24.8844L17.3769 30.085C17.5915 30.1887 17.8418 30.1887 18.0565 30.085L28.8291 24.8844C28.9642 24.8192 29.05 24.6825 29.05 24.5325V11.7357C29.05 11.5857 28.9642 11.449 28.8291 11.3838L18.0565 6.18317C17.8418 6.07957 17.5915 6.07957 17.3769 6.18317Z" fill="#3D554D"/>
<path d="M6.44831 11.5234C6.40725 11.586 6.38333 11.6596 6.38333 11.7374V24.5342C6.38333 24.6841 6.46918 24.8209 6.60422 24.8861L17.3769 30.0866C17.4842 30.1385 17.6004 30.1644 17.7167 30.1644V16.9633L6.44831 11.5234Z" fill="#314B42"/>
<path d="M28.985 11.5234C29.0261 11.586 29.05 11.6596 29.05 11.7374V24.5342C29.05 24.6841 28.9641 24.8209 28.8291 24.8861L18.0565 30.0866C17.9492 30.1385 17.8329 30.1644 17.7167 30.1644V16.9633L28.985 11.5234Z" fill="#1D3E32"/>
<path d="M9.60706 23.8498C9.55021 23.8498 9.49218 23.8372 9.43763 23.8109L7.77443 23.008C7.57981 22.9141 7.49852 22.6805 7.5924 22.4863C7.68591 22.292 7.92023 22.2111 8.1141 22.3043L9.77729 23.1073C9.97191 23.2011 10.0532 23.4347 9.95932 23.629C9.89218 23.7686 9.75248 23.8498 9.60706 23.8498Z" fill="#4B7667"/>
<path d="M11.1379 22.857C11.081 22.857 11.023 22.8445 10.9684 22.8181L7.7767 21.2774C7.58246 21.1836 7.50079 20.95 7.59467 20.7557C7.68818 20.5619 7.92288 20.4806 8.11637 20.5737L11.308 22.1144C11.5023 22.2083 11.584 22.4419 11.4901 22.6361C11.423 22.7757 11.2833 22.857 11.1379 22.857Z" fill="#4B7667"/>
<path d="M25.1664 13.3535L13.8584 7.89062L10.8776 9.33547L22.2109 14.8068L25.1664 13.3535Z" fill="#558373"/>
<path d="M22.2109 14.8126V19.0512C22.2109 19.1952 22.3615 19.2898 22.4913 19.2271L24.9455 18.0424C25.0806 17.9772 25.1664 17.8404 25.1664 17.6904V13.3594L22.2109 14.8126Z" fill="#4B7667"/>
<path d="M30.5737 29.4412C33.3454 26.3952 34.9145 22.4498 34.9966 18.34C35.0004 18.1523 34.8478 18 34.66 18V18C34.4722 18 34.3204 18.1523 34.3165 18.34C34.2344 22.2805 32.7285 26.0628 30.0708 28.9836C27.3367 31.9883 23.5803 33.8653 19.5358 34.2476C15.4914 34.6299 11.4498 33.49 8.20114 31.0509C4.95247 28.6117 2.7303 25.0486 1.96907 21.0581C1.20785 17.0676 1.96229 12.9366 4.08491 9.47282C6.20754 6.00902 9.54572 3.46139 13.4469 2.32801C17.348 1.19462 21.5316 1.55696 25.1798 3.34419C28.7261 5.0815 31.5186 8.04381 33.0455 11.6774C33.1182 11.8505 33.3155 11.9362 33.4901 11.867V11.867C33.6647 11.7979 33.7505 11.6001 33.6779 11.427C32.0886 7.63606 29.1773 4.54531 25.479 2.73353C21.6788 0.871834 17.3208 0.494396 13.2572 1.67501C9.19346 2.85562 5.71618 5.50939 3.50512 9.11752C1.29405 12.7257 0.508172 17.0287 1.30112 21.1855C2.09406 25.3422 4.40882 29.0538 7.79286 31.5946C11.1769 34.1354 15.3869 35.3228 19.5998 34.9246C23.8128 34.5263 27.7257 32.5711 30.5737 29.4412Z" stroke="#3D554D"/>
<path d="M32.2 20L34.3159 17.4609C34.5158 17.2211 34.8842 17.2211 35.0841 17.4609L37.2 20" stroke="#3D554D" stroke-width="1.5" stroke-linecap="round"/>
</svg>
