<svg width="167" height="30" viewBox="0 0 167 30" fill="none" xmlns="http://www.w3.org/2000/svg">
<path d="M22.0284 9.00608C22.0284 7.59973 21.7039 6.50439 21.0548 5.72008C20.4327 4.93577 19.5267 4.54361 18.3367 4.54361C18.2826 4.54361 18.2556 4.46247 18.2556 4.3002C18.2556 4.13793 18.2826 4.0568 18.3367 4.0568C19.0129 4.0568 19.689 4.08384 20.3651 4.13793C21.0683 4.16498 21.8256 4.1785 22.6369 4.1785C23.3401 4.1785 24.0298 4.16498 24.7059 4.13793C25.4091 4.08384 26.0446 4.0568 26.6126 4.0568C26.6667 4.0568 26.6937 4.13793 26.6937 4.3002C26.6937 4.46247 26.6667 4.54361 26.6126 4.54361C25.5308 4.54361 24.7059 4.93577 24.1379 5.72008C23.57 6.50439 23.286 7.59973 23.286 9.00608V20.3651C23.286 22.3394 22.8668 24.0433 22.0284 25.4767C21.217 26.9101 20.0676 28.0189 18.5801 28.8032C17.0926 29.5876 15.3482 29.9797 13.3469 29.9797C11.3726 29.9797 9.61461 29.6011 8.07303 28.8438C6.53144 28.0595 5.32793 26.9506 4.46248 25.5172C3.62407 24.0838 3.20487 22.38 3.20487 20.4057V7.3428C3.20487 6.55849 3.12373 5.97701 2.96146 5.59838C2.82624 5.1927 2.52874 4.92224 2.06897 4.78702C1.63624 4.62475 0.987154 4.54361 0.121704 4.54361C0.040568 4.54361 0 4.46247 0 4.3002C0 4.13793 0.040568 4.0568 0.121704 4.0568C0.797837 4.0568 1.55511 4.08384 2.39351 4.13793C3.25896 4.16498 4.16498 4.1785 5.11156 4.1785C6.11224 4.1785 7.03178 4.16498 7.87019 4.13793C8.70859 4.08384 9.46586 4.0568 10.142 4.0568C10.2231 4.0568 10.2637 4.13793 10.2637 4.3002C10.2637 4.46247 10.2231 4.54361 10.142 4.54361C9.2495 4.54361 8.58689 4.62475 8.15416 4.78702C7.72144 4.94929 7.42394 5.23327 7.26167 5.63894C7.12644 6.04462 7.05883 6.63962 7.05883 7.42393V18.9858C7.05883 22.2853 7.73496 24.7059 9.08722 26.2475C10.4665 27.789 12.3327 28.5598 14.6856 28.5598C16.9845 28.5598 18.783 27.8567 20.0811 26.4503C21.3793 25.0169 22.0284 23.002 22.0284 20.4057V9.00608Z" fill="#1C1E1D"/>
<path d="M32.4483 18.4178L32.1644 17.931C33.1921 16.714 34.0575 15.7809 34.7607 15.1318C35.4909 14.4557 36.0995 13.9959 36.5863 13.7525C37.0731 13.4821 37.5329 13.3469 37.9656 13.3469C38.5335 13.3469 39.1015 13.5497 39.6694 13.9554C40.2644 14.334 40.5619 14.8208 40.5619 15.4158C40.5619 15.9026 40.4132 16.3083 40.1157 16.6329C39.8182 16.9574 39.399 17.1197 38.8581 17.1197C38.3713 17.1197 37.9926 16.9844 37.7222 16.714C37.4517 16.4435 37.1948 16.1866 36.9514 15.9432C36.708 15.6998 36.3699 15.5781 35.9372 15.5781C35.7208 15.5781 35.4909 15.6457 35.2475 15.7809C35.0041 15.8891 34.6661 16.146 34.2333 16.5517C33.8006 16.9574 33.2056 17.5794 32.4483 18.4178ZM27.8236 29.4118C27.7425 29.4118 27.7019 29.3306 27.7019 29.1684C27.7019 29.0061 27.7425 28.9249 27.8236 28.9249C28.7431 28.9249 29.3517 28.7356 29.6492 28.357C29.9467 27.9784 30.0954 27.2346 30.0954 26.1258V18.3773C30.0954 17.5118 30.0007 16.8763 29.8114 16.4706C29.6221 16.0649 29.284 15.8621 28.7972 15.8621C28.5538 15.8621 28.2563 15.9162 27.9047 16.0243C27.5531 16.1325 27.1745 16.2813 26.7688 16.4706C26.6607 16.4976 26.566 16.4435 26.4849 16.3083C26.4308 16.146 26.4443 16.0514 26.5254 16.0243L31.8398 13.428C31.9751 13.3739 32.0697 13.3469 32.1238 13.3469C32.3943 13.3469 32.6647 13.6579 32.9352 14.2799C33.2327 14.902 33.3814 15.808 33.3814 16.998V26.1258C33.3814 26.856 33.4896 27.4375 33.706 27.8702C33.9223 28.2759 34.301 28.5598 34.8419 28.7221C35.3828 28.8573 36.14 28.9249 37.1137 28.9249C37.2218 28.9249 37.2759 29.0061 37.2759 29.1684C37.2759 29.3306 37.2218 29.4118 37.1137 29.4118C36.4105 29.4118 35.5991 29.3982 34.6796 29.3712C33.7871 29.3442 32.8135 29.3306 31.7587 29.3306C31.0285 29.3306 30.3118 29.3442 29.6086 29.3712C28.9325 29.3982 28.3375 29.4118 27.8236 29.4118Z" fill="#1C1E1D"/>
<path d="M52.0031 29.9391C50.8672 29.9391 49.7583 29.7498 48.6765 29.3712C47.5947 28.9655 46.6075 28.357 45.715 27.5456L48.068 23.2049C48.068 24.6653 48.3519 25.8418 48.9199 26.7343C49.4878 27.5997 50.164 28.2218 50.9483 28.6004C51.7326 28.952 52.4358 29.1278 53.0578 29.1278C54.383 29.1278 55.3972 28.5328 56.1004 27.3428C56.8036 26.1528 57.1552 24.4625 57.1552 22.2718C57.1552 19.8107 56.7225 17.9986 55.857 16.8357C54.9916 15.6728 53.8557 15.0913 52.4493 15.0913C51.5027 15.0913 50.6102 15.3347 49.7718 15.8215C48.9605 16.2813 48.2167 16.8222 47.5406 17.4442L47.1755 17.1197C47.7434 16.5247 48.3519 15.9297 49.001 15.3347C49.6772 14.7397 50.4344 14.2393 51.2728 13.8337C52.1383 13.428 53.0984 13.2252 54.1532 13.2252C55.3432 13.2252 56.4385 13.5091 57.4392 14.0771C58.4398 14.618 59.2512 15.4429 59.8732 16.5517C60.4953 17.6606 60.8063 19.0669 60.8063 20.7708C60.8063 22.7992 60.3736 24.503 59.5081 25.8824C58.6697 27.2346 57.5744 28.2488 56.2221 28.9249C54.8699 29.6011 53.4635 29.9391 52.0031 29.9391ZM42.8753 29.6552C42.7671 29.6822 42.686 29.6281 42.6319 29.4929C42.5778 29.3847 42.5913 29.3171 42.6724 29.2901C43.3486 28.8573 43.8624 28.3435 44.214 27.7485C44.5926 27.1535 44.782 26.3151 44.782 25.2333V5.39554C44.782 4.476 44.6873 3.79986 44.498 3.36714C44.3357 2.93441 44.0247 2.71805 43.5649 2.71805C43.1592 2.71805 42.6183 2.88032 41.9422 3.20487C41.834 3.23191 41.7394 3.1643 41.6582 3.00203C41.6041 2.83976 41.6041 2.7451 41.6582 2.71805L47.2972 0.0405674C47.3783 0.0135225 47.4459 0 47.5 0C47.6082 0 47.7299 0.0540907 47.8651 0.162272C48.0004 0.270454 48.068 0.365112 48.068 0.446247V27.2617L42.8753 29.6552Z" fill="#1C1E1D"/>
<path d="M75.0323 29.6552C74.9242 29.7093 74.8025 29.7363 74.6672 29.7363C74.2345 29.7363 73.8018 29.4253 73.3691 28.8032C72.9363 28.1812 72.72 27.2752 72.72 26.0852V19.0669C72.72 17.931 72.6253 17.0115 72.436 16.3083C72.2737 15.6051 72.0303 15.0913 71.7058 14.7667C71.3812 14.4422 70.962 14.2799 70.4482 14.2799C69.9614 14.2799 69.5286 14.4151 69.15 14.6856C68.7984 14.929 68.5144 15.2806 68.2981 15.7404C68.1087 16.2001 67.9871 16.7816 67.933 17.4848C67.8789 18.1339 67.676 18.6342 67.3244 18.9858C66.9999 19.3374 66.5131 19.5132 65.864 19.5132C65.269 19.5132 64.8227 19.378 64.5252 19.1075C64.2548 18.8371 64.1196 18.4719 64.1196 18.0122C64.1196 17.4442 64.39 16.8898 64.9309 16.3489C65.4718 15.808 66.148 15.3212 66.9593 14.8884C67.7707 14.4287 68.6226 14.0636 69.5151 13.7931C70.4076 13.5226 71.219 13.3874 71.9492 13.3874C73.0851 13.3874 74.0452 13.7525 74.8295 14.4828C75.6138 15.1859 76.006 16.3083 76.006 17.8499V25.0304C76.006 25.8688 76.1412 26.5044 76.4117 26.9371C76.6821 27.3698 77.0743 27.5862 77.5881 27.5862C78.0209 27.5862 78.5077 27.4645 79.0486 27.2211C79.1838 27.167 79.2785 27.2211 79.3326 27.3834C79.3867 27.5186 79.3461 27.6133 79.2109 27.6673L75.0323 29.6552ZM66.7159 29.6957C65.8775 29.6957 65.2149 29.4659 64.7281 29.0061C64.2413 28.5463 63.9979 27.9378 63.9979 27.1805C63.9979 26.288 64.3359 25.6254 65.0121 25.1927C65.7152 24.76 66.8106 24.3002 68.2981 23.8134L73.1257 22.1907L73.2474 22.7586L69.7991 24.0162C69.1229 24.2867 68.6361 24.5842 68.3386 24.9087C68.0411 25.2062 67.8924 25.5849 67.8924 26.0446C67.8924 26.6126 68.0547 27.0588 68.3792 27.3834C68.7038 27.7079 69.1094 27.8702 69.5962 27.8702C69.8397 27.8702 70.1236 27.8296 70.4482 27.7485C70.7998 27.6673 71.1649 27.5321 71.5435 27.3428L74.1804 25.9635L74.2616 26.572L70.7321 28.4787C70.029 28.8573 69.3258 29.1548 68.6226 29.3712C67.9465 29.5876 67.3109 29.6957 66.7159 29.6957Z" fill="#1C1E1D"/>
<path d="M91.7838 29.4118C91.7026 29.4118 91.662 29.3306 91.662 29.1684C91.662 29.0061 91.7026 28.9249 91.7838 28.9249C92.7033 28.9249 93.3118 28.7356 93.6093 28.357C93.9068 27.9784 94.0556 27.2346 94.0556 26.1258V20.0406C94.0556 18.526 93.7716 17.4172 93.2036 16.714C92.6627 15.9838 91.7973 15.6187 90.6073 15.6187C89.7418 15.6187 88.8493 15.8621 87.9298 16.3489C87.0373 16.8087 86.2936 17.4577 85.6986 18.2961L85.4957 17.8093C86.5505 16.3759 87.6593 15.2671 88.8223 14.4828C90.0123 13.6714 91.2834 13.2657 92.6357 13.2657C94.1502 13.2657 95.3132 13.7255 96.1245 14.645C96.9359 15.5375 97.3416 16.7546 97.3416 18.2961V26.1258C97.3416 27.2346 97.4903 27.9784 97.7878 28.357C98.1124 28.7356 98.7344 28.9249 99.6539 28.9249C99.7351 28.9249 99.7756 29.0061 99.7756 29.1684C99.7756 29.3306 99.7351 29.4118 99.6539 29.4118C99.1401 29.4118 98.5451 29.3982 97.8689 29.3712C97.1928 29.3442 96.4761 29.3306 95.7188 29.3306C94.9886 29.3306 94.2719 29.3442 93.5687 29.3712C92.8926 29.3982 92.2976 29.4118 91.7838 29.4118ZM80.871 29.4118C80.7898 29.4118 80.7493 29.3306 80.7493 29.1684C80.7493 29.0061 80.7898 28.9249 80.871 28.9249C81.7905 28.9249 82.399 28.7356 82.6965 28.357C82.994 27.9784 83.1428 27.2346 83.1428 26.1258V18.3773C83.1428 17.5118 83.0481 16.8763 82.8588 16.4706C82.6695 16.0649 82.3314 15.8621 81.8446 15.8621C81.6012 15.8621 81.3037 15.9162 80.9521 16.0243C80.6005 16.1325 80.2219 16.2813 79.8162 16.4706C79.708 16.4976 79.6134 16.4435 79.5322 16.3083C79.4781 16.146 79.4917 16.0514 79.5728 16.0243L84.8872 13.428C85.0224 13.3739 85.1171 13.3469 85.1712 13.3469C85.4416 13.3469 85.7121 13.6579 85.9825 14.2799C86.28 14.902 86.4288 15.808 86.4288 16.998V26.1258C86.4288 27.2346 86.5775 27.9784 86.875 28.357C87.1996 28.7356 87.8216 28.9249 88.7412 28.9249C88.8223 28.9249 88.8629 29.0061 88.8629 29.1684C88.8629 29.3306 88.8223 29.4118 88.7412 29.4118C88.2273 29.4118 87.6323 29.3982 86.9562 29.3712C86.28 29.3442 85.5633 29.3306 84.8061 29.3306C84.0758 29.3306 83.3591 29.3442 82.656 29.3712C81.9798 29.3982 81.3848 29.4118 80.871 29.4118Z" fill="#1C1E1D"/>
<path d="M120.24 29.8174L108.191 7.38337C107.596 6.27451 107.028 5.53076 106.487 5.15213C105.946 4.74645 105.392 4.54361 104.824 4.54361C104.743 4.54361 104.702 4.46247 104.702 4.3002C104.702 4.13793 104.743 4.0568 104.824 4.0568C105.311 4.0568 105.865 4.07032 106.487 4.09736C107.109 4.12441 107.637 4.13793 108.069 4.13793C108.475 4.13793 108.921 4.12441 109.408 4.09736C109.922 4.07032 110.246 4.0568 110.382 4.0568C110.679 4.0568 110.868 4.21907 110.95 4.54361C111.031 4.84111 111.274 5.38201 111.68 6.16633L121.497 24.4625L121.254 29.7363C121.227 29.8715 121.065 29.9527 120.767 29.9797C120.497 30.0338 120.321 29.9797 120.24 29.8174ZM100.564 29.4118C100.483 29.4118 100.442 29.3306 100.442 29.1684C100.442 29.0061 100.483 28.9249 100.564 28.9249C101.565 28.9249 102.403 28.5869 103.079 27.9107C103.783 27.2076 104.242 26.1798 104.459 24.8276L108.029 4.98986L109.002 5.07099L105.473 24.8276C105.257 26.1798 105.365 27.2076 105.797 27.9107C106.23 28.5869 106.947 28.9249 107.948 28.9249C108.002 28.9249 108.029 29.0061 108.029 29.1684C108.029 29.3306 108.002 29.4118 107.948 29.4118C107.407 29.4118 106.839 29.3982 106.244 29.3712C105.676 29.3442 105.013 29.3306 104.256 29.3306C103.607 29.3306 102.958 29.3442 102.309 29.3712C101.687 29.3982 101.105 29.4118 100.564 29.4118ZM121.254 29.7363L120.564 27.5862L123.972 8.64097C124.215 7.31575 124.121 6.30155 123.688 5.59838C123.282 4.8952 122.566 4.54361 121.538 4.54361C121.457 4.54361 121.416 4.46247 121.416 4.3002C121.416 4.13793 121.457 4.0568 121.538 4.0568C121.998 4.0568 122.525 4.08384 123.12 4.13793C123.742 4.16498 124.432 4.1785 125.189 4.1785C125.865 4.1785 126.514 4.16498 127.136 4.13793C127.758 4.08384 128.353 4.0568 128.921 4.0568C128.975 4.0568 129.002 4.13793 129.002 4.3002C129.002 4.46247 128.975 4.54361 128.921 4.54361C127.921 4.54361 127.069 4.8952 126.365 5.59838C125.689 6.30155 125.229 7.31575 124.986 8.64097L121.254 29.7363Z" fill="#3D554D"/>
<path d="M133.396 29.8986C131.881 29.8986 130.691 29.5199 129.826 28.7627C128.96 27.9784 128.392 26.9777 128.122 25.7606C127.878 24.5436 127.892 23.259 128.162 21.9067C128.352 20.879 128.73 19.8512 129.298 18.8235C129.866 17.7688 130.569 16.8222 131.408 15.9838C132.273 15.1454 133.247 14.4828 134.329 13.9959C135.411 13.4821 136.574 13.2252 137.818 13.2252C138.872 13.2252 139.657 13.4145 140.171 13.7931C140.711 14.1717 140.941 14.7126 140.86 15.4158C140.779 16.092 140.414 16.7546 139.765 17.4037C139.143 18.0257 138.304 18.5936 137.25 19.1075C136.222 19.5943 135.073 20.0135 133.801 20.3651C132.53 20.7167 131.219 20.9736 129.866 21.1359L129.947 20.6085C131.922 20.311 133.572 19.8242 134.897 19.1481C136.249 18.4449 137.033 17.4848 137.25 16.2677C137.385 15.6187 137.304 15.1318 137.006 14.8073C136.709 14.4828 136.303 14.3205 135.789 14.3205C135.086 14.3205 134.45 14.6045 133.883 15.1724C133.315 15.7133 132.828 16.4571 132.422 17.4037C132.043 18.3502 131.759 19.405 131.57 20.5679C131.327 22.0014 131.3 23.2995 131.489 24.4625C131.705 25.5984 132.152 26.5179 132.828 27.2211C133.504 27.8972 134.396 28.2353 135.505 28.2353C136.073 28.2353 136.695 28.1406 137.371 27.9513C138.048 27.762 138.697 27.4375 139.319 26.9777C139.373 26.9236 139.44 26.9506 139.521 27.0588C139.63 27.167 139.657 27.2481 139.603 27.3022C138.575 28.2488 137.534 28.9249 136.479 29.3306C135.424 29.7093 134.396 29.8986 133.396 29.8986Z" fill="#3D554D"/>
<path d="M145.548 29.858C144.385 29.858 143.398 29.5876 142.587 29.0467C141.776 28.5057 141.424 27.8431 141.532 27.0588C141.613 26.5991 141.803 26.2475 142.1 26.0041C142.425 25.7336 142.776 25.5984 143.155 25.5984C143.615 25.5984 143.966 25.7606 144.21 26.0852C144.48 26.3827 144.723 26.7343 144.94 27.14C145.183 27.5186 145.467 27.8702 145.792 28.1947C146.143 28.4922 146.617 28.641 147.212 28.641C147.78 28.641 148.212 28.4922 148.51 28.1947C148.807 27.8702 149.01 27.3834 149.118 26.7343C149.227 25.8688 149.091 25.1386 148.713 24.5436C148.334 23.9216 147.82 23.3671 147.171 22.8803C146.549 22.3935 145.941 21.8932 145.346 21.3793C144.751 20.8654 144.277 20.2975 143.926 19.6755C143.574 19.0264 143.479 18.2691 143.642 17.4037C143.777 16.6734 144.115 16.0108 144.656 15.4158C145.197 14.7938 145.886 14.2934 146.725 13.9148C147.563 13.5362 148.469 13.3469 149.443 13.3469C150.606 13.3469 151.539 13.5632 152.242 13.9959C152.945 14.4016 153.256 14.9425 153.175 15.6187C153.121 16.1055 152.918 16.4841 152.567 16.7546C152.242 16.998 151.904 17.1197 151.552 17.1197C151.012 17.1197 150.606 16.9844 150.335 16.714C150.092 16.4435 149.889 16.1325 149.727 15.7809C149.565 15.4023 149.348 15.0778 149.078 14.8073C148.834 14.5368 148.415 14.4016 147.82 14.4016C147.306 14.4016 146.914 14.5368 146.644 14.8073C146.373 15.0778 146.197 15.4023 146.116 15.7809C145.981 16.5652 146.103 17.2549 146.481 17.8499C146.86 18.4449 147.36 18.9993 147.982 19.5132C148.632 20 149.254 20.5139 149.849 21.0548C150.471 21.5957 150.957 22.1907 151.309 22.8398C151.688 23.4888 151.809 24.2461 151.674 25.1116C151.539 25.8147 151.187 26.545 150.619 27.3022C150.078 28.0325 149.375 28.641 148.51 29.1278C147.644 29.6146 146.657 29.858 145.548 29.858Z" fill="#3D554D"/>
<path d="M158.877 29.8986C158.282 29.8986 157.714 29.7904 157.173 29.574C156.632 29.3577 156.24 28.9655 155.996 28.3976C155.753 27.8026 155.726 26.9642 155.915 25.8824L157.538 16.998C157.7 16.0784 157.7 15.4834 157.538 15.213C157.403 14.9425 156.943 14.8073 156.159 14.8073C156.051 14.8073 155.996 14.7126 155.996 14.5233C156.024 14.334 156.078 14.2393 156.159 14.2393C157.349 14.2393 158.322 13.9013 159.08 13.2252C159.864 12.522 160.459 11.7106 160.865 10.7911C160.892 10.7099 161.027 10.6829 161.27 10.7099C161.514 10.737 161.622 10.8046 161.595 10.9128L159.08 24.9899C158.89 25.9905 158.958 26.7343 159.283 27.2211C159.607 27.6809 160.189 27.9107 161.027 27.9107C161.649 27.9107 162.244 27.7755 162.812 27.5051C163.407 27.2076 164.002 26.8019 164.597 26.288C164.651 26.2339 164.732 26.261 164.84 26.3692C164.976 26.4773 165.003 26.572 164.921 26.6531C163.704 27.8161 162.623 28.6545 161.676 29.1684C160.729 29.6552 159.796 29.8986 158.877 29.8986ZM164.962 15.6592C164.908 15.6592 164.624 15.6322 164.11 15.5781C163.596 15.497 162.974 15.4158 162.244 15.3347C161.541 15.2535 160.824 15.213 160.094 15.213L160.175 14.1176C161.013 14.1176 161.825 14.0906 162.609 14.0365C163.393 13.9824 164.083 13.9283 164.678 13.8742C165.3 13.8201 165.733 13.7931 165.976 13.7931C166.111 13.7931 166.193 13.8472 166.22 13.9554C166.274 14.0365 166.287 14.1312 166.26 14.2393C166.233 14.4557 166.071 14.7532 165.773 15.1318C165.503 15.4834 165.232 15.6592 164.962 15.6592Z" fill="#3D554D"/>
</svg>
