<svg width="20" height="21" viewBox="0 0 20 21" fill="none" xmlns="http://www.w3.org/2000/svg">
<g clip-path="url(#clip0_168_16882)">
<path d="M6.48438 8.15625C6.48438 10.0948 8.06148 11.6719 10 11.6719C11.9385 11.6719 13.5156 10.0948 13.5156 8.15625C13.5156 6.21773 11.9385 4.64062 10 4.64062C8.06148 4.64062 6.48438 6.21773 6.48438 8.15625ZM12.7344 8.15625C12.7344 9.66398 11.5077 10.8906 10 10.8906C8.49227 10.8906 7.26562 9.66398 7.26562 8.15625C7.26562 6.64852 8.49227 5.42188 10 5.42188C11.5077 5.42188 12.7344 6.64852 12.7344 8.15625Z" fill="black"/>
<path d="M17.1875 4.48438C17.4032 4.48438 17.5781 4.30949 17.5781 4.09375C17.5781 3.87801 17.4032 3.70312 17.1875 3.70312C16.9718 3.70312 16.7969 3.87801 16.7969 4.09375C16.7969 4.30949 16.9718 4.48438 17.1875 4.48438Z" fill="black"/>
<path d="M10 20.5C15.5431 20.5 20 16.0107 20 10.5C20 8.66527 19.4998 6.87172 18.5535 5.3132C18.4415 5.12883 18.2013 5.07012 18.0168 5.18203C17.8324 5.29402 17.7737 5.53426 17.8857 5.71867C18.7578 7.15496 19.2188 8.80832 19.2188 10.5C19.2188 13.173 18.0949 15.6522 16.1142 17.4017C15.5112 14.5576 12.9894 12.4531 10 12.4531C7.01062 12.4531 4.48848 14.5578 3.88613 17.402C1.90523 15.6523 0.78125 13.173 0.78125 10.5C0.78125 5.41676 4.91676 1.28125 10 1.28125C12.0699 1.28125 14.0246 1.9498 15.653 3.21469C15.8233 3.34703 16.0688 3.31617 16.2011 3.14582C16.3334 2.97547 16.3026 2.73004 16.1322 2.5977C14.3656 1.22535 12.2451 0.5 10 0.5C7.32672 0.5 4.81492 1.53969 2.92723 3.4275C1.03957 5.31523 0 7.82695 0 10.5C0 16.0246 4.47105 20.5 10 20.5ZM10 13.2344C12.7616 13.2344 15.0539 15.2516 15.4188 17.9612C13.8386 19.1117 11.9699 19.7188 10 19.7188C8.03031 19.7188 6.16188 19.1116 4.5816 17.9611C4.94598 15.2515 7.23809 13.2344 10 13.2344Z" fill="black"/>
</g>
<defs>
<clipPath id="clip0_168_16882">
<rect width="20" height="20" fill="white" transform="translate(0 0.5)"/>
</clipPath>
</defs>
</svg>
