<svg width="21" height="18" viewBox="0 0 21 18" fill="none" xmlns="http://www.w3.org/2000/svg">
<path d="M15.4363 0C13.6419 0 12.0823 0.821373 10.9262 2.37526C10.7777 2.57494 10.645 2.7747 10.5272 2.96849C10.4094 2.77466 10.2767 2.57494 10.1281 2.37526C8.97205 0.821373 7.41248 0 5.61808 0C2.29487 0 0.0544434 2.66944 0.0544434 5.94213C0.0544434 10.2133 4.11393 12.9023 10.0034 17.8103C10.1551 17.9368 10.3411 18 10.5272 18C10.7132 18 10.8993 17.9368 11.051 17.8103C16.939 12.9037 20.9999 10.2138 20.9999 5.94213C20.9999 2.67136 18.7614 0 15.4363 0ZM10.5272 16.1184C5.10418 11.6319 1.69081 9.25425 1.69081 5.94213C1.69081 3.80246 3.03983 1.63636 5.61808 1.63636C6.87804 1.63636 7.94425 2.20095 8.78714 3.3145C9.45494 4.19678 9.73247 5.10738 9.74143 5.13716C9.84284 5.48669 10.1631 5.72727 10.5272 5.72727C10.8918 5.72727 11.2125 5.48595 11.3134 5.13552C11.3235 5.10055 12.3568 1.63636 15.4363 1.63636C18.0145 1.63636 19.3635 3.80246 19.3635 5.94213C19.3635 9.25748 15.9329 11.6463 10.5272 16.1184Z" fill="#111111"/>
</svg>
